<svg xmlns:xlink="http://www.w3.org/1999/xlink" class="svg-icon svg-key_feature_blind_spot_monitor " width="1.1" height="1.1" aria-hidden="true" role="img" focusable="false" xmlns="http://www.w3.org/2000/svg" viewBox="0 0 128 128"><path class="cls-1" d="M35.4,87.52l4.77.79A31.05,31.05,0,0,1,67.74,54.54L66,50A35.74,35.74,0,0,0,35.4,87.52Z" fill="#333333"></path><path class="cls-1" d="M49.81,67.94a27.52,27.52,0,0,0-6,21l.52.09,4.35.72A22.86,22.86,0,0,1,70.76,62.57l-1.5-4L69,58A27.51,27.51,0,0,0,49.81,67.94Z" fill="#333333"></path><path class="cls-1" d="M91.07,92.92h.58l5.19-.23c1.13-.05,7.4.71,11.56.28,1.46-.15,2.67-1.58,3.64-3.37a16.89,16.89,0,0,0,0-15.87c-1-1.8-2.17-3.23-3.63-3.38-4.16-.44-10.43.31-11.56.26l-5.19-.24h-.6c-.07-.73-.34-2.66-1.05-2.66-.88,0-1.3,0-1.3,1.3v1.37c-7.08,0-24.58.12-25.45.61-1.08.61-4.2,1.36-5,3.36s-1.09,7.26-1.09,7.26.26,5.26,1.07,7.26,3.92,2.76,5,3.37c.86.49,18.41.63,25.47.67v1.3c0,1.26.42,1.3,1.3,1.3C90.71,95.51,91,93.7,91.07,92.92ZM108.2,72.45c.29-.4.41-.48.83-.29,0,0,2.16.62,2.91,4.4a2.63,2.63,0,0,1-2.56-1.37C108.56,73.6,107.91,72.84,108.2,72.45ZM64.34,81.62c0-6.63,5.34-8.35,5.34-8.35l2.45,3V87.53L69.95,90S64.35,88.44,64.34,81.62Zm22.61,6.53c1.27-4.11-.06-13,0-13.4s7.28-1.47,7.28-1.47A18.67,18.67,0,0,1,96.54,82a13.22,13.22,0,0,1-2.32,8C86.33,88.76,86.95,88.15,86.95,88.15Zm21.23,2.42c-.29-.4.36-1.15,1.19-2.74a2.63,2.63,0,0,1,2.56-1.37c-.76,3.78-2.92,4.39-2.92,4.39C108.58,91,108.47,91,108.18,90.56Z" fill="#333333"></path><path class="cls-1" d="M14,57.7l6.75,0v1.3c0,1.26.42,1.3,1.3,1.3.69,0,1-1.81,1-2.59h.58l5.19-.23c1.13-.05,7.4.71,11.56.28,1.46-.15,2.67-1.58,3.64-3.37a16.89,16.89,0,0,0,0-15.87c-1-1.8-2.17-3.23-3.63-3.38-4.16-.44-10.43.31-11.56.26l-5.19-.24h-.6c-.07-.73-.34-2.66-1.05-2.66-.88,0-1.3,0-1.3,1.3v1.37l-6.75,0m26.23,2c.29-.4.41-.48.83-.29,0,0,2.16.62,2.91,4.4A2.63,2.63,0,0,1,41.4,40C40.57,38.44,39.93,37.68,40.22,37.29ZM19,53c1.27-4.11-.06-13,0-13.4s7.28-1.47,7.28-1.47a18.67,18.67,0,0,1,2.3,8.72,13.22,13.22,0,0,1-2.32,8C18.35,53.6,19,53,19,53ZM40.19,55.4c-.29-.4.36-1.15,1.19-2.74a2.63,2.63,0,0,1,2.56-1.37C43.18,55.08,41,55.69,41,55.69,40.6,55.89,40.48,55.8,40.19,55.4Z" fill="#333333"></path></svg>