<!-- Generated by IcoMoon.io -->
<svg version="1.1" xmlns="http://www.w3.org/2000/svg" width="1024" height="1024" viewBox="0 0 1024 1024">
<title>sunroof-moonroof</title>
<g id="icomoon-ignore">
</g>
<path d="M530.032 407.213h565.129v-78.152h-730.882c-12.014-1.71-24.476-2.587-37.366-2.587s-24.904 0.855-37.366 2.587h-110.794c-36.062 0-70.435-19.324-89.332-50.235l-115.518-191.533-66.994 40.359 115.518 191.533c8.166 13.745 18.469 26.186 29.628 36.938l-191.105 191.96 55.386 55.386 204.829-205.277c3.442 1.282 6.862 2.138 10.304 3.014-63.552 55.835-103.932 138.284-103.932 230.609 0 167.912 134.415 304.892 299.74 304.892s299.74-136.553 299.74-304.892c-0.427-88.883-37.794-168.767-97.049-224.602zM326.913 409.782c105.214 0 193.243 77.297 212.567 179.498-6.007 0-12.89 1.71-21.911 2.138-71.29 4.724-99.636-61.414-180.781-65.711-21.462-1.282-38.221 2.587-48.097 5.152-56.69 12.89-56.69 37.794-106.498 50.235-27.062 6.862-50.235 9.021-67.421 9.021 18.897-102.629 106.925-180.353 212.14-180.353zM119.070 692.353c4.297 1.282 8.593 3.014 14.173 4.297 41.235 10.304 57.545-6.435 76.442-0.427 38.221 12.462 25.331 95.766 50.235 146.001-67.849-23.193-121.097-79.435-140.849-149.87zM369 849.089c4.724-13.745 7.738-33.497 16.738-64.835 17.186-58.828 25.759-88.028 48.525-99.636 34.779-18.042 69.986 21.034 100.063 11.586-23.193 77.297-86.746 136.98-165.325 152.884z"></path>
<path d="M648.988 473.78v182.512c0 24.476 25.759 44.656 57.118 44.656h392.493c30.91 0 56.263-19.324 57.118-43.373l7.311-182.512c0.855-25.331-24.904-45.959-57.118-45.959h-399.803c-31.338 0-57.118 19.752-57.118 44.656z"></path>
<path d="M1105.892 720.699h-399.803c-31.786 0-57.118 6.007-57.118 13.317v54.531c0 7.311 25.759 13.317 57.118 13.317h392.493c30.91 0 56.263-5.579 57.118-12.89l7.311-54.531c0.855-7.311-24.904-13.745-57.118-13.745z"></path>
</svg>
