<svg xmlns="http://www.w3.org/2000/svg" xmlns:xlink="http://www.w3.org/1999/xlink" class="svg-icon svg-key_feature_hands_free_liftgate " width="1.1em" height="1.1em" aria-hidden="true" role="img" focusable="false" version="1.1" id="shar_1" x="0px" y="0px" viewBox="0 0 228.9 226.3" xml:space="preserve"><g id="shar_2"><g id="shar_1-2"><path d="M223.5,119.1c-6.1-14.6-17-29.9-28.5-39.8c-8.6-7.5-19.1-8.4-28.3-9.3c-2.4-0.2-4.8-0.4-7.2-0.8c-1.9-0.3-2.4-1.1-2.8-1.8 c-1.4-3-0.2-9.2,2.5-13.5c5.4-8.6,13.8-8.6,26.9-7.8c1.8,0.1,3.6,0.2,5.5,0.3l4.9,0.2l9.2-25.4c1.3-3.4,0.8-7.2-1.3-10.2 c-7-10.1-31.9-10.7-32.2-10.7L148.4,0c-2.2-0.2-4.5,0.4-6.5,1.5c-1.8,1.2-3.3,2.9-4.2,4.9l-13.9,26.7c-0.4,0.9-1.2,2-2.1,3.3 c-1.9,2.7-3.6,5.6-5,8.7c-5.2-0.4-10.4-1.2-15.4-2.3c-4.1-1.5-8.2-3.2-12.1-5.1c-3.8-1.8-7.7-3.7-11.9-5.2 c-22-7.9-43.5-12-63.8-12c-2.6-0.1-5.1,0.4-7.3,1.6c-5.9,3.5-6,10.5-6,13.1C0,45.1,0,54.9,0,64.8c0,42.6,0,85.2,0.1,127.8 c-0.1,4.2,3.1,7.7,7.3,7.8c0.1,0,0.2,0,0.3,0c5.2,0,10.5-4.9,12.2-6.9c13,28.2,46.4,40.6,74.6,27.6c16.4-7.5,28.1-22.4,31.7-40.1 c7.3,0.4,25.8-3.6,76.7-14.8c5.8-1.3,10-2.2,11.4-2.5c2.5-0.5,6.2-1.3,9.3-4C235.6,148.8,223.6,119.4,223.5,119.1z M69.1,139.3 c17,0,30.8,13.8,30.8,30.8s-13.8,30.8-30.8,30.8s-30.8-13.8-30.8-30.8l0,0C38.3,153.1,52.1,139.3,69.1,139.3z M214.5,149.8 c-0.9,0.4-1.9,0.7-2.9,0.8c-1.5,0.3-5.7,1.2-11.6,2.5c-15.9,3.5-54.8,12-68.3,14.2c-4.8-14.6-11-31.8-24.3-42 c-4.9-3.6-10.4-6.2-16.2-7.8c-17.3-6.7-36.9-4.4-52.1,6.2c-11.7,7.6-20.8,20.5-25.5,36.3c0-31.8,0-63.6,0-95.4 c0-9.8,0-19.6,0.1-29.4c0-0.6,0-1,0-1.3c18.7,0,38.6,3.8,59,11.2c3.5,1.3,7,2.9,10.7,4.7c4.4,2.2,9,4.1,13.7,5.8 c0.3,0.1,26.1,7.8,30.9-1.4l0.8-1.2v-1.7c0.3-1.5,3-5.6,4.3-7.6c1.1-1.7,2.1-3.3,2.8-4.5l13.5-25.8l22.9,0.4 c5.9,0.1,16.9,2,20.5,4.2l-5.3,14.6h-0.3c-13-0.8-29.2-1.8-39.1,14.1c-4.4,7.1-7.2,18-3.3,26.3c2.4,5.2,7.3,8.8,13.1,9.4 c2.6,0.4,5.2,0.6,7.9,0.9c8.3,0.8,15.4,1.4,20.8,6.1c9.9,8.5,19.7,22.2,24.9,34.8C214.9,133.7,216.8,147.6,214.5,149.8z"/><path d="M205.3,122.3c-3.1-7.9-6.2-16-12.4-21.1l0,0c-3.3-2.7-7.2-4.4-11.5-4.8c-6.2-0.7-15.7,0.2-21.9,3.8l-1.7,1l0.7,1.8 c5.7,14.4,23.1,25.1,36.7,31.6c1.1,0.5,5.3,2.4,8.9,2.4c1.4,0.1,2.8-0.4,3.8-1.3c1-1,1.8-2.8,0.3-6.1 C207.2,127.3,206.3,124.8,205.3,122.3z M197.2,130.5c-12.3-5.8-27.7-15.2-33.7-27.4c5.1-2.2,12.3-2.9,17.3-2.3 c3.3,0.3,6.5,1.6,9.1,3.8c5.3,4.4,8.3,12,11.1,19.3c1,2.6,2,5.2,3.1,7.6c0.2,0.3,0.3,0.7,0.4,1 C203.2,132.7,199.8,131.7,197.2,130.5z"/><path d="M21.5,43.7l-1.9,0.1l-0.3,1.8C19.4,45.9,17.2,84,19,86.1l0.7,0.8h1c6.4,0,13,0.2,19.5,0.4c6.7,0.2,13.4,0.5,20.2,0.5 c8.6,0.1,17.1-0.5,25.6-1.7l2.8-0.4L87.7,83C78.2,59.6,49.1,42.3,21.5,43.7z M40.3,82.8c-5.8-0.2-11.8-0.4-17.6-0.4 c-0.1-6.4,0.5-27.5,1-34.3c23.7-0.4,49,14.4,58.6,34C68.8,83.8,54.3,83.3,40.3,82.8z"/></g></g></svg>