<!-- Generated by IcoMoon.io -->
<svg version="1.1" xmlns="http://www.w3.org/2000/svg" width="25" height="32" viewBox="0 0 25 32">
<title>electric-seats</title>
<path d="M24.591 27.749c0-2.549-1.205-3.752-3.774-3.757-2.28 0-4.564 0.058-6.841-0.033-0.7-0.029-1.338 0.020-1.919 0.303l-3.061-3.060c1.228-2.547 1.029-5.294-0.63-8.113-0.615-1.047-1.291-2.056-1.955-3.075q-0.208-1.55-0.543-3.073-0.242-1.076-0.554-2.143c0.293-0.737 0.601-1.356 0.95-1.947l-0.035 0.065c0.694-1.249 0.353-2.48-0.839-2.757-2.298-0.535-3.832 0.288-4.627 2.532-1.856 5.232 0.086 10.249 1.493 15.339 1.1 3.968 2.236 7.466 4.579 10.859 0.976 1.413 1.751 2.203 2.851 2.674 0.575 0.245 1.242 0.394 1.943 0.407l0.005 0c1.595 0.048 3.193 0.009 4.789 0.009 1.653 0 3.308 0.015 4.961 0 0.005 0 0.012 0 0.018 0 1.557 0 2.853-1.117 3.131-2.593l0.003-0.020c0.1-0.521 0.056-1.075 0.056-1.617z"></path>
<path d="M17.34 21.785c3.449 0 6.244-2.796 6.244-6.244s-2.796-6.244-6.244-6.244c-3.449 0-6.244 2.796-6.244 6.244v0c0 3.449 2.796 6.244 6.244 6.244v0zM17.34 11.022c2.496 0 4.52 2.024 4.52 4.52s-2.024 4.52-4.52 4.52c-2.496 0-4.52-2.024-4.52-4.52v0c0.002-2.496 2.025-4.519 4.52-4.522h0z"></path>
<path d="M14.66 16.263c0.038 0.026 0.085 0.041 0.136 0.042h1.692l-0.916 2.978c-0.008 0.024-0.013 0.051-0.013 0.079 0 0.14 0.114 0.254 0.254 0.254 0.074 0 0.141-0.032 0.187-0.083l0-0 4.072-4.325c0.043-0.045 0.070-0.107 0.070-0.175 0-0.14-0.114-0.254-0.254-0.254-0 0-0.001 0-0.001 0h-1.698l0.916-2.977c0.007-0.022 0.011-0.048 0.011-0.075 0-0.093-0.050-0.175-0.125-0.219l-0.001-0.001c-0.036-0.021-0.080-0.034-0.127-0.034-0.073 0-0.139 0.031-0.185 0.080l-0 0-4.072 4.325c-0.043 0.045-0.070 0.107-0.070 0.175 0 0.088 0.045 0.166 0.114 0.212l0.001 0.001z"></path>
</svg>
