<svg class="svg-icon svg-key_feature_lane_departure_warning " width="80" height="80" aria-hidden="true" role="img" focusable="false" xmlns="http://www.w3.org/2000/svg" xmlns:xlink="http://www.w3.org/1999/xlink" x="0px" y="0px" viewBox="0 0 80 80"><rect x="50.7" y="61.3" class="st3" width="3.2" height="8.7" fill="#333333"></rect><polygon class="st3" points="53.9,58.7 50.7,58.7 50.7,58.4 53.9,52.6" fill="#333333"></polygon><rect x="50.7" y="10" class="st3" width="3.2" height="10.3" fill="#333333"></rect><path class="st3" d="M56,45.7l0.3-0.4l1.9-4.1c0.4-0.9,3.6-5.4,4.9-8.8c0.5-1.2-0.1-2.7-1.1-4.2c-2.7-4.1-7.3-6.5-12.3-6.5 c-1.8,0.1-3.4,0.4-4.1,1.4c-2,3.1-4,8.2-4.5,9l-2.3,4l-0.3,0.4c-0.6-0.3-2.2-0.8-2.4-0.3c-0.4,0.7-0.5,1,0.4,1.5l1,0.6 c-2.8,5.4-9.9,19-9.8,19.9c0.1,1.1-0.6,3.8,0.5,5.2c1.2,1.4,5.2,3.8,5.2,3.8s4.1,2,6.1,2.1c1.9,0.2,3.8-1.9,4.7-2.5 c0.8-0.4,8-14,10.9-19.4l1,0.5c1,0.5,1.1,0.2,1.5-0.4C57.8,47,56.6,46,56,45.7z M47.2,24c-0.2-0.4-0.2-0.5,0.1-0.8 c0,0,1.4-1.4,4.6-0.4c-0.3,0.8-1.2,1.4-2.1,1.4C48.3,24.2,47.4,24.4,47.2,24z M50.6,46.8c-2.6-2.7-10.1-5.3-10.3-5.5 c-0.3-0.2,1.9-6.2,1.9-6.2c2.7-0.1,5.3,0.6,7.7,1.8c2.2,1.1,4.1,2.9,5.2,5C50.8,47.6,50.6,46.8,50.6,46.8z M61.2,31.4 c-0.4,0.1-0.8-0.8-1.7-2c-0.5-0.8-0.5-1.8,0-2.6c2.6,2.2,2.2,4.1,2.2,4.1C61.7,31.3,61.6,31.4,61.2,31.4L61.2,31.4z" fill="#333333"></path><path class="st3" d="M19.9,70h-3.2v-8.7h3.2V70z M19.9,58.7h-3.2V48.4h3.2V58.7z M19.9,45.9h-3.2V35.6h3.2V45.9z M19.9,33 h-3.2V22.8h3.2V33z M19.9,20.3h-3.2V10h3.2V20.3z" fill="#333333"></path></svg>