<!-- Generated by IcoMoon.io -->
<svg version="1.1" xmlns="http://www.w3.org/2000/svg" width="25" height="32" viewBox="0 0 25 32">
<title>leather-seats</title>
<path d="M24.599 27.75c0-2.555-1.205-3.76-3.773-3.76-2.277 0-4.568 0.053-6.845-0.040-0.702-0.026-1.337 0.013-1.92 0.305l-3.058-3.045c1.231-2.542 1.033-5.296-0.636-8.116-0.622-1.046-1.297-2.052-1.959-3.072-0.132-1.033-0.318-2.052-0.543-3.072-0.159-0.715-0.344-1.43-0.556-2.145 0.252-0.649 0.556-1.284 0.914-1.88 0.702-1.245 0.357-2.476-0.834-2.754-2.29-0.53-3.839 0.291-4.634 2.529-1.854 5.216 0.093 10.234 1.496 15.331 1.099 3.972 2.237 7.48 4.581 10.87 0.98 1.417 1.748 2.198 2.86 2.674 0.622 0.265 1.284 0.397 1.946 0.41 1.589 0.053 3.191 0.013 4.793 0.013 1.655 0 3.31 0.013 4.965 0 1.549 0.013 2.873-1.099 3.151-2.608 0.093-0.543 0.053-1.099 0.053-1.642zM9.4 24.334c-0.41-0.318-0.808-0.675-1.165-1.046-0.371-0.384-0.702-0.794-0.98-1.245-0.291-0.463-0.463-0.98-0.516-1.523-0.013-0.543 0.053-1.072 0.212-1.589 0.132-0.503 0.291-1.006 0.384-1.496 0.040-0.238 0.066-0.49 0.066-0.741s-0.040-0.49-0.093-0.728c-0.132-0.49-0.318-0.953-0.569-1.39-0.238-0.45-0.53-0.874-0.808-1.324-0.291-0.437-0.543-0.914-0.755-1.39-0.424-0.98-0.622-2.026-0.794-3.045-0.093-0.503-0.238-0.993-0.437-1.47s-0.41-0.94-0.609-1.43c-0.066-0.106-0.106-0.225-0.159-0.357-0.026-0.066-0.040-0.132-0.066-0.199s-0.026-0.132-0.040-0.199c-0.026-0.265-0.013-0.543 0.066-0.794 0.172-0.503 0.463-0.953 0.834-1.324-0.172 0.199-0.318 0.41-0.437 0.635-0.132 0.225-0.225 0.463-0.291 0.702s-0.066 0.503-0.026 0.741c0.013 0.066 0.026 0.119 0.040 0.185l0.066 0.172c0.053 0.119 0.106 0.238 0.159 0.357 0.212 0.463 0.45 0.927 0.662 1.417 0.212 0.477 0.384 0.98 0.503 1.509 0.212 1.019 0.424 2.026 0.834 2.952 0.397 0.927 1.059 1.748 1.575 2.661 0.265 0.463 0.477 0.966 0.609 1.483 0.066 0.265 0.106 0.543 0.106 0.821s-0.026 0.543-0.079 0.808c-0.106 0.53-0.278 1.019-0.41 1.523-0.066 0.238-0.132 0.49-0.172 0.741-0.053 0.238-0.066 0.49-0.066 0.741 0.040 0.503 0.185 0.98 0.437 1.417 0.252 0.45 0.556 0.861 0.887 1.245 0.688 0.768 1.47 1.47 2.317 2.052-0.45-0.265-0.874-0.556-1.284-0.874zM23.182 28.2c-0.013 0.238-0.066 0.477-0.146 0.702s-0.172 0.437-0.305 0.636c-0.252 0.397-0.583 0.728-0.98 0.98 0.344-0.291 0.636-0.649 0.834-1.046 0.106-0.199 0.172-0.41 0.238-0.622 0.053-0.212 0.079-0.437 0.079-0.649s-0.013-0.437-0.066-0.649c-0.040-0.212-0.119-0.41-0.212-0.609-0.172-0.371-0.424-0.702-0.728-0.966-0.715 0-1.417 0.013-2.132 0h-1.099l-1.099-0.013c-0.741-0.013-1.47-0.026-2.211-0.066-0.741-0.026-1.47-0.066-2.211-0.119 0.741-0.053 1.47-0.079 2.211-0.106s1.47-0.053 2.211-0.066l1.099-0.013h1.099c0.741-0.013 1.47 0 2.211 0h0.066l0.053 0.040c0.357 0.318 0.649 0.715 0.847 1.165 0.185 0.437 0.265 0.927 0.238 1.403z"></path>
</svg>
