<svg xmlns="http://www.w3.org/2000/svg" xmlns:xlink="http://www.w3.org/1999/xlink" class="svg-icon svg-key_feature_lane_keep_assist " width="1.1em" height="1.1em" aria-hidden="true" role="img" focusable="false" x="0px" y="0px" viewBox="0 0 80 80"><polygon class="st3" points="27.8,19.8 22.7,19.8 26,13.1 30.6,13.1 "/><polygon class="st3" points="23.2,30.6 17.4,30.6 21.7,21.8 26.9,21.8 "/><polygon class="st3" points="17,45.5 10,45.5 16,33.4 22,33.4 "/><polygon class="st3" points="52.2,19.8 57.3,19.8 54,13.1 49.4,13.1 "/><polygon class="st3" points="56.8,30.6 62.6,30.6 58.3,21.8 53.1,21.8"/><polygon class="st3" points="63,45.5 70,45.5 64,33.4 58,33.4 "/><path class="st3" d="M54.7,54c-0.5-0.8-2.8-4.2-3.3-6c-0.1-0.4-0.2-0.7-0.2-1c-0.9-0.1-1.9-0.3-1.9-0.3 c-1.3-0.6-3-1.2-4.9-1.6c-1.2-0.3-2.5-0.4-3.9-0.4c-3.5,0-6.5,1-8.7,2c-0.6,0.3-1.3,0.4-2,0.4c0,0.3-0.1,0.6-0.2,1 c-0.6,1.9-2.8,5.2-3.3,6l-0.4,3.7c0.8,1.7,1.9,3.2,3.2,4.6c3.1,3.1,7.3,4.7,11.5,4.7s8.3-1.6,11.5-4.7 c1.3-1.3,2.4-2.8,3.1-4.4L54.7,54z M37.5,62.6c-2.1-0.5-4-1.6-5.7-3.2c-1.5-1.5-2.6-3.4-3.1-5.3h4.4c0.2,0,0.4,0.1,0.7,0.2 l3.4,3c0.2,0.2,0.3,0.4,0.3,0.7L37.5,62.6z M42.8,51.2c0,0.1-0.1,0.5-0.1,0.7c-0.1,0.3-0.2,0.3-0.3,0.4 c-0.2,0.2-0.4,0.2-0.5,0.2c-0.3,0.1-1,0.1-1.3,0.1c-0.3,0-1,0-1.3-0.1c-0.1,0-0.3-0.1-0.5-0.2c-0.1-0.1-0.2-0.2-0.3-0.4 c-0.1-0.2-0.1-0.6-0.1-0.7c0-0.2-0.1-0.4-0.1-0.8c0-0.2,0-0.4,0-0.6c0.1-0.6,0.4-0.7,0.8-0.8c0.2-0.1,0.5-0.1,0.7-0.1 c0.2,0,0.6,0,0.7,0s0.6,0,0.7,0c0.2,0,0.5,0.1,0.7,0.1c0.3,0.1,0.7,0.2,0.8,0.8c0,0.2,0,0.4,0,0.6 C42.8,50.7,42.8,51,42.8,51.2z M49.4,59.4c-1.6,1.6-3.6,2.7-5.7,3.2v-4.6c0-0.3,0.1-0.6,0.3-0.7l3.4-3 c0.2-0.2,0.4-0.2,0.7-0.2h4.4C52,56,50.9,58,49.4,59.4z"/><path class="st3" d="M25.6,53.7c0,0,2.7-4,3.4-6c0.3-1,0.1-1.5-0.4-1.5c-0.3,0-0.7,0.2-1.1,0.6c-0.8,0.8-1.5,1.1-2,1.1 c-1.2,0-1.5-0.9-1.3-1.3c0.4-1.9,1.2-3.6,2.2-5.2c-2,0.5-4.8,1.5-5.6,3c-0.6,1-1,9-0.3,14.5c0.3,3.3,3.8,4.8,4,4.8l0.1,0.1 L25.6,53.7z"/><path class="st3" d="M46,35.5c-0.3-0.1-0.5-0.2-0.8-0.3c-0.1,0-0.1,0-0.1-0.1c-5.5-1.6-11.7-0.3-16.1,4.1 c-0.6,0.6-1.1,1.2-1.6,1.9l0,0c-1.1,1.6-2,3.3-2.5,5.2c0,0.1,0,0.1-0.1,0.2c-0.1,0.4,0.2,0.7,0.6,0.6c0.2,0,0.7-0.1,1.5-0.9 c0.4-0.4,1.1-0.7,1.6-0.7c0.3,0,0.6,0.1,0.8,0.3c0.6-1.4,1.5-2.7,2.6-3.8c2.4-2.4,5.6-3.6,8.7-3.6c3.1,0,6.3,1.2,8.7,3.6 c1.1,1.1,1.9,2.4,2.5,3.7c0.2-0.1,0.4-0.2,0.7-0.2c0.5,0,1.1,0.3,1.6,0.7c0.8,0.8,1.3,0.8,1.5,0.9c0.4,0.1,0.7-0.3,0.6-0.7 C54.7,41.4,51,37.3,46,35.5z"/><path class="st3" d="M60.3,44.4c-0.8-1.5-3.8-2.5-5.8-3c1,1.6,1.8,3.3,2.3,5.2c0.1,0.4-0.2,1.3-1.3,1.3c-0.5,0-1.2-0.3-2-1.1 c-0.3-0.3-0.7-0.6-1.1-0.6c-0.4,0-0.8,0.4-0.4,1.5c0.6,2,3.4,6,3.4,6l1.1,10.1l0.2-0.1c0.2-0.1,3.7-1.6,4-4.8 C61.3,53.5,60.9,45.5,60.3,44.4z"/></svg>