<?xml version="1.0" encoding="utf-8"?>
<!-- Generator: Adobe Illustrator 23.0.1, SVG Export Plug-In . SVG Version: 6.00 Build 0)  -->
<svg version="1.1" id="Шар_1" focusable="false" xmlns="http://www.w3.org/2000/svg" xmlns:xlink="http://www.w3.org/1999/xlink"
	 x="0px" y="0px" viewBox="0 0 80 80" style="enable-background:new 0 0 80 80;" xml:space="preserve">
<style type="text/css">
	.st0{fill:#333333;}
</style>
<path class="st0" d="M19.9,70h-3.2v-8.7h3.2V70z M19.9,58.7h-3.2V48.4h3.2V58.7z M19.9,45.9h-3.2V35.6h3.2V45.9z M19.9,33h-3.2V22.8
	h3.2V33z M19.9,20.3h-3.2V10h3.2V20.3z"/>
<path class="st0" d="M61.3,70h-3.2v-8.7h3.2V70z M61.3,58.7h-3.2V48.4h3.2V58.7z M61.3,45.9h-3.2V35.6h3.2V45.9z M61.3,33h-3.2V22.8
	h3.2V33z M61.3,20.3h-3.2V10h3.2V20.3z"/>
<g>
	<path class="st0" d="M37.5,46.5l-1.4-13.8v-6.4h5.6v6.4l-1.3,13.8H37.5z M36.4,53.5v-5.2h5.2v5.2H36.4z"/>
</g>
</svg>
