<svg xmlns="http://www.w3.org/2000/svg" xmlns:xlink="http://www.w3.org/1999/xlink" class="svg-icon svg-key_feature_navigation_system " width="1.1em" height="1.1em" aria-hidden="true" role="img" focusable="false" x="0px" y="0px" viewBox="0 0 512 512" enable-background="new 0 0 512 512" xml:space="preserve"><path d="M167.062,159.1l154.613-56.777l-57.505,155.29l-18.891-78.946L167.062,159.1z M424.352,169.352 c0,94.402-81.86,156.695-168.352,243.291C169.508,326.047,87.648,263.806,87.648,169.352C87.648,76.355,163.003,1,256,1 S424.352,76.355,424.352,169.352z M379.493,164.2c0-68.226-55.319-123.493-123.493-123.493S132.507,95.974,132.507,164.2 S187.827,287.693,256,287.693S379.493,232.426,379.493,164.2z M427.37,344.573h-49.907c-11.553,12.386-23.835,24.667-36.585,37.157 h63.594l16.549,32.89H306.948c-6.245,6.089-12.594,12.282-18.943,18.579h60.628l16.861,40.696H159.881l17.694-40.696h46.368 c-6.349-6.297-12.646-12.49-18.943-18.579h-72.701l-13.374-32.89h52.145c-12.75-12.438-25.032-24.771-36.585-37.157H84.578L1,511 h510L427.37,344.573z M139.637,473.843H61.211l41.529-82.693l17.017,41.945h37.521L139.637,473.843z M368.72,433.147h61.616 l20.452,40.696h-65.207L368.72,433.147z"/></svg>