<?xml version="1.0" encoding="utf-8"?>
<!-- Generator: Adobe Illustrator 17.0.0, SVG Export Plug-In . SVG Version: 6.00 Build 0)  -->
<!DOCTYPE svg PUBLIC "-//W3C//DTD SVG 1.1//EN" "http://www.w3.org/Graphics/SVG/1.1/DTD/svg11.dtd">
<svg version="1.1" id="Layer_1" xmlns="http://www.w3.org/2000/svg" xmlns:xlink="http://www.w3.org/1999/xlink" x="0px" y="0px"
	 width="512px" height="512px" viewBox="0 0 512 512" enable-background="new 0 0 512 512" xml:space="preserve">
<g>
	<path fill="#76C15C" d="M405.713,121.384c-13.3-10.192-53.35,4.632-71.142,12.555c-8.636,3.813-18.273,9.279-30.129,14.658
		c-2.342,1.074-4.745,2.147-7.21,3.278c-0.52-0.418-1.564-1.133-2.845-2.037c-1.899-1.277-4.212-2.872-5.891-4.191
		c-3.124-2.386-5.651-2.301-8.508-1.438c-0.025,0.011-0.049,0.023-0.049,0.023c-0.061-0.002-0.133-0.029-0.182-0.006
		c-0.664,0.245-1.001,0.549-1.088,0.947c-0.153,0.577,0.229,1.148,0.684,1.686c0.279,0.349,1.217,1.352,2.341,2.567
		c1.884,2.09,4.471,4.932,5.03,5.63c0.361,0.461,0.712,0.837,1.066,1.152c-70.11,32.106-169.231,78.447-183.746,86.359
		c-21.786,11.965-37.298,25.766-40.149,32.237c-2.902,6.554-1.554,29.331,13.693,62.563c15.246,33.232,31.633,49.11,38.471,51.135
		c6.786,2.109,27.332-0.722,50.611-9.433c15.487-5.792,115.252-50.728,185.342-82.944c-0.039,0.436,0.041,0.936,0.142,1.546
		c0.199,0.953,0.65,4.864,1.015,7.741c0.167,1.535,0.319,2.778,0.366,3.204c0.146,0.709,0.378,1.408,0.879,1.656
		c0.286,0.167,0.627,0.13,1.021-0.051c0.123-0.057,0.271-0.124,0.358-0.194l0.173-0.079c0.025-0.011,0.025-0.011,0.049-0.023
		c2.517-1.603,4.255-3.474,4.425-7.461c0.105-2.048,0.401-4.72,0.631-6.885c0.203-1.705,0.346-3.083,0.371-3.811
		c2.441-1.12,4.832-2.217,7.163-3.316c11.858-5.44,22.251-9.194,30.797-13.204c17.635-8.329,54.935-29.083,55.943-45.749
		c0.508-8.649-3.941-37.016-14.053-59.055C431.19,148.49,412.6,126.64,405.713,121.384z M223.708,193.128
		c26.266-12.737,51.718-24.712,69.172-32.72l-0.98,4.628c-24.347,15.945-46.932,30.007-70.198,41.218
		C222.036,201.714,222.773,196.75,223.708,193.128z M127.719,362.532c-3.846,1.764-5.655,1.073-7.804-1.791
		c-7.351-9.907-13.661-20.799-19.633-33.816c-5.949-12.967-10.09-24.855-12.805-36.888c-0.769-3.497-0.113-5.32,3.732-7.084
		l29.781-13.663c4.018-1.844,6.325-0.783,7.572,2.584c4.452,12.371,8.667,22.404,14.616,35.371
		c5.972,13.017,10.839,22.78,17.302,34.199c1.739,3.141,1.039,5.581-2.98,7.425L127.719,362.532z M194.42,351.029l-3.596,4.067
		c-1.886,2.328-3.063,3.016-5.764,3.958c-2.834,0.912-5.422,1.712-8.066,2.387c-0.769,0.144-3.093,0.673-6.014,1.267
		c-3.325,0.69-3.651,0.302-0.488-1.388c6.94-3.542,14.509-7.403,23.047-11.558C195.537,348.846,195.911,349.271,194.42,351.029z
		 M143.786,241.314c-8.708,3.786-16.548,7.055-23.793,9.931c-3.311,1.37-3.414,0.82-0.723-1.25c2.355-1.826,4.272-3.243,4.905-3.683
		c2.237-1.563,4.497-3.078,7.095-4.568c2.428-1.472,3.74-1.865,6.701-1.851l5.428-0.073
		C145.727,239.887,145.817,240.472,143.786,241.314z M209.301,200.037c-0.098,3.626,0.276,7.692,0.849,11.607
		c-22.567,10.264-40.561,18.46-55.739,25.184l-4.296-2.535l-3.838-2.447C164.205,222.337,186.708,211.088,209.301,200.037z
		 M203.659,353.475l0.668-4.723l0.884-4.643c14.974-7.168,32.912-15.488,55.445-25.825c2.571,2.938,5.433,5.923,8.211,8.14
		C245.788,336.415,222.561,346.086,203.659,353.475z M282.228,320.681c-3.355-1.654-7.598-4.333-11.258-7.04
		c23.673-10.324,49.04-18.321,76.995-26.402l4.181,2.349C334.658,297.522,309.014,309.079,282.228,320.681z M388.288,259.22
		c-0.009,4.988-0.174,6.645-3.897,8.353c-1.233,0.566-2.829,1.119-4.878,1.79c-7.83,2.578-17.463,5.386-28.617,8.653
		c-7.158,2.09-14.549,4.258-22.285,6.584c-5.346,1.617-8.082,0.336-9.837-4.529c-5.3-16.041-11.246-31.277-17.682-45.304
		c-6.447-14.052-14.107-28.473-22.764-42.854c-2.577-4.577-1.739-7.498,2.971-10.435c6.722-4.278,13.086-8.421,19.253-12.414
		c9.852-6.43,18.388-11.957,25.509-16.209c1.933-1.185,3.381-1.998,4.589-2.553c3.698-1.697,5.061-0.741,8.824,2.517
		c13.809,12.017,23.974,23.766,35.183,48.197C385.909,225.546,388.161,240.926,388.288,259.22z M445.066,212.103
		c1.089,9.139,1.025,15.764-0.14,20.834c-1.172,5.252-3.215,7.563-6.56,9.963c-4.191,3.027-14.197,7.886-19.448,10.295
		c-0.888,0.407-1.342,0.198-1.551-0.064c-0.539-0.588-0.218-1.84,0.195-2.566c1.229-2.265,3.782-8.539,5.302-12.25
		c0.568-1.365,0.977-2.358,1.135-2.729c0.132-0.299,0.216-0.636,0.288-0.998c0.277-1.022,0.572-2.202,2.236-3.712
		c8.515-7.458,14.483-14.224,16.856-19.133c0.455-0.895,0.862-1.112,1.231-0.893C444.86,211.004,445.005,211.385,445.066,212.103z
		 M412.873,141.674c-0.042,0.168-0.131,0.299-0.304,0.378c-0.247,0.113-0.621,0.076-1.21-0.101
		c-5.233-1.389-14.254-1.279-25.401,0.314c-2.304,0.311-3.391-0.235-4.369-0.741c-0.31-0.156-0.62-0.312-0.969-0.421
		c-0.348-0.109-1.297-0.42-2.569-0.851c-3.625-1.202-10.394-3.468-12.926-3.977c-0.82-0.161-2.014-0.747-2.095-1.575
		c-0.037-0.341,0.089-0.847,0.952-1.243c7.075-3.246,16.194-6.982,20.523-7.953c4.001-0.97,7.085-1.013,11.797,1.451
		c4.71,2.524,9.759,6.833,15.929,13.581C412.725,141.026,412.919,141.385,412.873,141.674z"/>
	<g>
		<polygon fill="#76C15C" points="1.053,379.251 1.037,379.251 1.037,379.365 1.037,388.028 1.037,388.134 1.053,388.134 
			9.976,388.134 9.997,388.134 9.997,388.028 9.997,379.365 9.997,379.251 9.976,379.251 		"/>
		<polygon fill="#76C15C" points="1.053,361.722 1.037,361.722 1.037,361.824 1.037,370.483 1.037,370.593 1.053,370.593 
			9.976,370.593 9.997,370.593 9.997,370.483 9.997,361.824 9.997,361.722 9.976,361.722 		"/>
		<polygon fill="#76C15C" points="1.053,396.793 1.037,396.793 1.037,396.903 1.037,405.57 1.037,405.672 1.053,405.672 
			9.976,405.672 9.997,405.672 9.997,405.57 9.997,396.903 9.997,396.793 9.976,396.793 		"/>
		<polygon fill="#76C15C" points="1.053,344.181 1.037,344.181 1.037,344.282 1.037,352.949 1.037,353.055 1.053,353.055 
			9.976,353.055 9.997,353.055 9.997,352.949 9.997,344.282 9.997,344.181 9.976,344.181 		"/>
		<polygon fill="#76C15C" points="1.053,414.339 1.037,414.339 1.037,414.444 1.037,423.103 1.037,423.213 1.053,423.213 
			9.976,423.213 9.997,423.213 9.997,423.103 9.997,414.444 9.997,414.339 9.976,414.339 		"/>
		<polygon fill="#76C15C" points="1.053,431.872 1.037,431.872 1.037,431.982 1.037,440.641 1.037,440.747 1.053,440.747 
			9.976,440.747 9.997,440.747 9.997,440.641 9.997,431.982 9.997,431.872 9.976,431.872 		"/>
		<polygon fill="#76C15C" points="1.053,326.639 1.037,326.639 1.037,326.753 1.037,335.412 1.037,335.514 1.053,335.514 
			9.976,335.514 9.997,335.514 9.997,335.412 9.997,326.753 9.997,326.639 9.976,326.639 		"/>
		<polygon fill="#76C15C" points="1.053,274.023 1.037,274.023 1.037,274.133 1.037,282.791 1.037,282.901 1.053,282.901 
			9.976,282.901 9.997,282.901 9.997,282.791 9.997,274.133 9.997,274.023 9.976,274.023 		"/>
		<polygon fill="#76C15C" points="1.053,291.56 1.037,291.56 1.037,291.666 1.037,300.333 1.037,300.435 1.053,300.435 
			9.976,300.435 9.997,300.435 9.997,300.333 9.997,291.666 9.997,291.56 9.976,291.56 		"/>
		<polygon fill="#76C15C" points="1.053,309.102 1.037,309.102 1.037,309.212 1.037,317.87 1.037,317.972 1.053,317.972 
			9.976,317.972 9.997,317.972 9.997,317.87 9.997,309.212 9.997,309.102 9.976,309.102 		"/>
		<polygon fill="#76C15C" points="1.037,238.964 1,238.964 1,247.912 1.179,247.912 1.216,247.912 9.797,247.912 9.976,247.912 
			10.013,247.912 10.013,238.964 9.997,238.964 9.997,238.94 9.976,238.94 1.053,238.94 1.037,238.94 		"/>
		<polygon fill="#76C15C" points="1.053,256.481 1.037,256.481 1.037,256.591 1.037,265.25 1.037,265.364 1.053,265.364 
			9.976,265.364 9.997,265.364 9.997,265.25 9.997,256.591 9.997,256.481 9.976,256.481 		"/>
	</g>
	<g>
		<polygon fill="#76C15C" points="492.195,379.251 492.179,379.251 492.179,379.365 492.179,388.028 492.179,388.134 
			492.195,388.134 501.118,388.134 501.139,388.134 501.139,388.028 501.139,379.365 501.139,379.251 501.118,379.251 		"/>
		<polygon fill="#76C15C" points="492.195,361.722 492.179,361.722 492.179,361.824 492.179,370.483 492.179,370.593 
			492.195,370.593 501.118,370.593 501.139,370.593 501.139,370.483 501.139,361.824 501.139,361.722 501.118,361.722 		"/>
		<polygon fill="#76C15C" points="492.195,396.793 492.179,396.793 492.179,396.903 492.179,405.57 492.179,405.672 
			492.195,405.672 501.118,405.672 501.139,405.672 501.139,405.57 501.139,396.903 501.139,396.793 501.118,396.793 		"/>
		<polygon fill="#76C15C" points="492.195,344.181 492.179,344.181 492.179,344.282 492.179,352.949 492.179,353.055 
			492.195,353.055 501.118,353.055 501.139,353.055 501.139,352.949 501.139,344.282 501.139,344.181 501.118,344.181 		"/>
		<polygon fill="#76C15C" points="492.195,414.339 492.179,414.339 492.179,414.444 492.179,423.103 492.179,423.213 
			492.195,423.213 501.118,423.213 501.139,423.213 501.139,423.103 501.139,414.444 501.139,414.339 501.118,414.339 		"/>
		<polygon fill="#76C15C" points="492.195,431.872 492.179,431.872 492.179,431.982 492.179,440.641 492.179,440.747 
			492.195,440.747 501.118,440.747 501.139,440.747 501.139,440.641 501.139,431.982 501.139,431.872 501.118,431.872 		"/>
		<polygon fill="#76C15C" points="492.195,326.639 492.179,326.639 492.179,326.753 492.179,335.412 492.179,335.514 
			492.195,335.514 501.118,335.514 501.139,335.514 501.139,335.412 501.139,326.753 501.139,326.639 501.118,326.639 		"/>
		<polygon fill="#76C15C" points="492.195,274.023 492.179,274.023 492.179,274.133 492.179,282.791 492.179,282.901 
			492.195,282.901 501.118,282.901 501.139,282.901 501.139,282.791 501.139,274.133 501.139,274.023 501.118,274.023 		"/>
		<polygon fill="#76C15C" points="492.195,291.56 492.179,291.56 492.179,291.666 492.179,300.333 492.179,300.435 492.195,300.435 
			501.118,300.435 501.139,300.435 501.139,300.333 501.139,291.666 501.139,291.56 501.118,291.56 		"/>
		<polygon fill="#76C15C" points="492.195,309.102 492.179,309.102 492.179,309.212 492.179,317.87 492.179,317.972 
			492.195,317.972 501.118,317.972 501.139,317.972 501.139,317.87 501.139,309.212 501.139,309.102 501.118,309.102 		"/>
		<polygon fill="#76C15C" points="492.179,238.964 492.142,238.964 492.142,247.912 492.321,247.912 492.358,247.912 
			500.939,247.912 501.118,247.912 501.155,247.912 501.155,238.964 501.139,238.964 501.139,238.94 501.118,238.94 492.195,238.94 
			492.179,238.94 		"/>
		<polygon fill="#76C15C" points="492.195,256.481 492.179,256.481 492.179,256.591 492.179,265.25 492.179,265.364 
			492.195,265.364 501.118,265.364 501.139,265.364 501.139,265.25 501.139,256.591 501.139,256.481 501.118,256.481 		"/>
	</g>
	<g>
		<path fill="#76C15C" d="M505.468,211.505c0.264-0.139,0.519-0.368,0.748-0.594c0.568-0.469,0.958-1.174,1.132-1.936
			c13.771-48.053-12.601-102.352-58.882-121.239c-1.931-0.889-4.306,0.401-4.689,2.507c-0.368,1.864,0.806,4.004,2.567,4.645
			c42.569,17.377,66.732,67.129,54.07,111.331c-1.137,2.779,2.383,6.568,4.97,5.326l0.084-0.041L505.468,211.505z"/>
		<path fill="#76C15C" d="M486.379,203.563c0.115-0.104,0.14-0.223,0.245-0.348c0.57-0.513,0.972-1.22,1.087-2.03
			c10.583-36.944-9.602-78.944-45.186-93.464c-1.899-0.791-4.114,0.553-4.43,2.613c-0.39,1.785,0.758,3.905,2.438,4.592
			c31.961,13.046,50.048,50.288,40.541,83.474c-1.553,2.858,2.735,7.15,5.222,5.204l0.084-0.041L486.379,203.563z"/>
		<path fill="#76C15C" d="M466.416,194.89c0.7-0.451,1.215-1.109,1.429-1.965c7.265-25.357-6.769-54.251-31.189-64.218
			c-1.861-0.848-4.125,0.251-4.611,2.24c-0.495,1.897,0.789,4.297,2.619,4.966c20.717,8.453,32.452,32.615,26.286,54.123
			C459.93,192.987,463.953,196.576,466.416,194.89z"/>
	</g>
	<g>
		<path fill="#76C15C" d="M70.642,380.5c-23.994-11.121-36.51-40.263-28.055-65.321c0.444-1.318-0.21-3.045-1.44-3.714
			c-1.352-0.849-3.241-0.24-3.734,1.257c-9.417,27.896,4.806,60.638,31.516,73.018c0.526,0.339,1.138,0.46,1.721,0.388
			c0.125,0.002,0.207,0.047,0.325,0.032l0.001,0.001l0.065-0.028C73.415,385.667,73.077,381.032,70.642,380.5z"/>
		<path fill="#76C15C" d="M75.879,364.647c-15.553-7.205-23.674-26.112-18.19-42.353c0.529-1.396-0.218-3.342-1.565-4.006
			c-1.396-0.714-3.167,0.046-3.609,1.55c-6.462,19.145,3.25,41.756,21.583,50.252c0.603,0.305,1.243,0.336,1.855,0.157
			C78.165,369.665,78.101,365.535,75.879,364.647z"/>
	</g>
	<g>
		<g transform="translate(0,-952.36218)">
			<path fill="#76C15C" d="M104.121,1023.616c-12.4,0-23.705,4.691-32.198,12.435l6.356,6.356c6.93-6.284,15.755-9.899,25.842-9.899
				c9.965,0,19.103,3.519,26.085,9.691l6.113-6.148C127.825,1028.307,116.52,1023.616,104.121,1023.616L104.121,1023.616z
				 M139.48,1039.177l-6.113,6.113c3.063,3.42,5.548,7.444,7.294,11.983c0.298,0.776,0.114,1.715-0.456,2.321
				s-1.496,0.847-2.288,0.597c-2.486-0.791-4.885-1.49-7.259-2.119c1.471,5.87,1.512,11.03,0.104,16.846
				c3.2-1.459,6.457-2.594,9.413-3.439c0.813-0.234,1.555,0.011,2.094,0.565c0.513,0.489,0.822,1.196,0.719,1.901
				c-1.085,7.596-2.401,13.756-9.726,23.445l6.217,6.217c7.744-8.494,12.435-19.799,12.435-32.198
				C151.915,1059.01,147.224,1047.671,139.48,1039.177L139.48,1039.177z M68.796,1039.211c-7.734,8.492-12.47,19.807-12.47,32.198
				c0,12.391,4.736,23.672,12.47,32.164l6.183-6.182c-7.315-9.68-8.641-15.853-9.726-23.446c-0.123-0.818,0.292-1.661,0.955-2.145
				c0.625-0.444,1.197-0.385,1.859-0.322c2.771,0.792,5.816,1.832,8.822,3.161c-1.253-5.639-1.106-10.67,0.382-16.395
				c-2.266,0.588-4.566,1.221-6.947,1.945c-0.815,0.252-1.767-0.018-2.329-0.66c-0.562-0.642-0.703-1.622-0.345-2.396
				c2.008-4.351,4.538-8.232,7.503-11.566L68.796,1039.211z M82.238,1057.064c-2.391,7.48-2.45,12.756,0,20.319
				c3.698,2.207,7.017,4.951,9.274,8.336c0.992,1.715,1.863,3.582,2.466,5.175c7.392,2.565,12.869,2.55,20.25,0
				c0.76-1.874,1.609-3.69,2.501-5.175c2.107-3.161,5.142-5.757,8.545-7.885c2.66-7.881,2.859-13.282,0.452-20.945
				C110.935,1053.477,95.669,1054.134,82.238,1057.064z M104.121,1060.295c6.112,0,11.115,5.003,11.115,11.115
				c0,6.112-5.003,11.115-11.115,11.115c-6.112,0-11.115-5.003-11.115-11.115C93.006,1065.297,98.008,1060.295,104.121,1060.295z
				 M104.121,1064.74c-3.709,0-6.669,2.959-6.669,6.669c0,3.709,2.959,6.669,6.669,6.669c3.709,0,6.669-2.96,6.669-6.669
				C110.79,1067.7,107.83,1064.74,104.121,1064.74z M95.541,1096.036c0.804,3.348,1.342,6.891,1.876,10.629
				c0.187,1.475-1.467,2.849-2.883,2.397c-5.897-1.966-11.247-4.05-16.429-8.475l-6.183,6.148
				c8.494,7.744,19.799,12.469,32.198,12.469s23.705-4.725,32.198-12.469l-6.183-6.148c-5.182,4.425-10.532,6.509-16.429,8.475
				c-1.416,0.453-3.07-0.922-2.883-2.397c0.534-3.738,1.072-7.281,1.876-10.629C106.81,1097.595,101.434,1097.601,95.541,1096.036z"
				/>
		</g>
		<g>
			<path fill="#76C15C" d="M77.882,188.535l-2.086,4.564h-3.99l8.555-17.578h4.825l2.06,17.578h-3.938l-0.365-4.564H77.882z
				 M82.785,185.666l-0.339-3.782c-0.079-0.965-0.183-2.373-0.261-3.442h-0.052c-0.444,1.069-0.939,2.425-1.408,3.442l-1.748,3.782
				H82.785z"/>
			<path fill="#76C15C" d="M95.339,175.521l-1.93,10.119c-0.13,0.6-0.183,1.304-0.183,2.086c0,1.408,0.861,2.504,2.557,2.504
				c1.956,0,3.26-1.304,3.885-4.564l1.93-10.145h3.756l-1.904,9.988c-1.017,5.321-3.365,7.876-8.138,7.876
				c-3.625,0-5.842-1.852-5.842-5.607c0-0.756,0.105-1.617,0.261-2.452l1.852-9.806H95.339z"/>
			<path fill="#76C15C" d="M111.309,178.807h-4.642l0.652-3.286h13.066l-0.626,3.286h-4.694l-2.686,14.292h-3.756L111.309,178.807z"
				/>
			<path fill="#76C15C" d="M136.249,182.563c0,3.208-1.121,6.311-3.129,8.294c-1.644,1.591-3.861,2.529-6.494,2.529
				c-4.565,0-7.12-3.234-7.12-7.329c0-3.181,1.173-6.338,3.234-8.319c1.643-1.565,3.886-2.504,6.415-2.504
				C133.797,175.234,136.249,178.363,136.249,182.563z M125.686,179.694c-1.408,1.382-2.19,4.121-2.19,6.233
				c0,2.478,1.121,4.33,3.677,4.33c1.096,0,2.14-0.496,2.948-1.278c1.382-1.382,2.138-4.277,2.138-6.311
				c0-2.19-0.783-4.303-3.546-4.303C127.538,178.363,126.495,178.859,125.686,179.694z"/>
		</g>
	</g>
</g>
</svg>
