<!-- Generated by IcoMoon.io -->
<svg version="1.1" xmlns="http://www.w3.org/2000/svg" width="736" height="1024" viewBox="0 0 736 1024">
<title>sunroof-moonroof</title>
<g id="icomoon-ignore">
</g>
<path fill="#000" d="M586.748 275.612c137.6 144.656 130.544 373.988-14.112 511.588-14.112 14.112-28.224 24.696-42.34 35.284l21.168 38.812c186.996-123.488 236.388-377.516 112.904-560.984-35.284-52.924-81.148-95.26-137.6-127.016l-21.168 38.812c28.224 17.64 56.452 38.812 81.148 63.508v0z"></path>
<path fill="#000" d="M491.488 744.86l21.168 38.812c144.656-102.316 176.412-303.424 74.092-448.084-28.224-35.284-59.98-67.036-102.316-88.204l-21.168 38.812c130.544 77.62 176.412 246.976 98.788 377.516-17.64 31.752-42.34 59.98-70.564 81.148v0z"></path>
<path fill="#000" d="M445.62 663.712l24.696 45.868c3.528-3.528 10.584-7.056 14.112-14.112 95.26-88.204 98.788-236.388 7.056-331.652-14.112-14.112-31.752-28.224-49.396-38.812l-17.64 45.868c84.676 52.924 112.904 169.352 56.452 254.032-7.056 14.112-17.64 24.696-28.224 35.284-3.528 0-3.528 0-7.056 3.528v0z"></path>
<path fill="#000" d="M50.46 473.188l-42.34 109.376h31.752l7.056-24.696h35.284l7.056 24.696h31.752l-45.868-112.904h-24.696zM71.632 533.168h-14.112l7.056-21.168 7.056 21.168z"></path>
<path fill="#000" d="M184.532 533.168c0 7.056 0 14.112 0 17.64s0 3.528-3.528 7.056c-3.528 0-7.056 3.528-10.584 3.528s-7.056 0-10.584-3.528c-3.528-3.528-3.528-3.528-3.528-7.056 0 0 0-7.056 0-17.64v-59.98h-31.752v59.98c0 10.584 0 21.168 3.528 28.224 0 3.528 3.528 10.584 7.056 14.112 0 0 3.528 3.528 10.584 7.056s14.112 3.528 24.696 3.528c10.584 0 17.64 0 21.168-3.528 7.056-3.528 10.584-7.056 14.112-10.584s7.056-10.584 7.056-14.112c0-7.056 3.528-14.112 3.528-28.224v-59.98h-31.752v63.508z"></path>
<path fill="#000" d="M308.020 483.776c-3.528-3.528-10.584-7.056-17.64-10.584-3.528 0-10.584-3.528-21.168-3.528h-42.34v112.904h42.34c10.584 0 17.64 0 21.168 0 7.056-3.528 10.584-7.056 17.64-10.584 3.528-3.528 10.584-10.584 10.584-21.168 3.528-7.056 3.528-14.112 3.528-24.696s0-17.64-3.528-24.696c-3.528-7.056-7.056-10.584-10.584-17.64zM258.624 497.888h3.528c10.584 0 14.112 0 17.64 0s7.056 3.528 7.056 3.528 3.528 3.528 3.528 7.056 3.528 10.584 3.528 17.64c0 7.056 0 14.112-3.528 17.64 0 3.528-3.528 7.056-3.528 7.056s-3.528 3.528-7.056 3.528c0 0-3.528 0-10.584 0h-10.584v-56.452z"></path>
<path fill="#000" d="M332.716 473.188h28.224v112.904h-28.224v-112.904z"></path>
<path fill="#000" d="M463.26 483.776c-10.584-10.584-24.696-14.112-38.812-14.112-10.584 0-17.64 0-24.696 3.528s-10.584 7.056-14.112 10.584c-3.528 3.528-7.056 10.584-10.584 14.112-3.528 7.056-3.528 17.64-3.528 28.224 0 17.64 3.528 31.752 14.112 42.34s24.696 14.112 38.812 14.112c17.64 0 28.224-3.528 38.812-14.112s14.112-24.696 14.112-42.34c0-17.64-7.056-31.752-14.112-42.34zM445.62 526.112c0 10.584-3.528 17.64-7.056 24.696-3.528 3.528-10.584 7.056-17.64 7.056s-14.112-3.528-17.64-7.056c-3.528-3.528-7.056-14.112-7.056-24.696s3.528-17.64 7.056-24.696c3.528-3.528 10.584-7.056 17.64-7.056s14.112 3.528 17.64 7.056c7.056 7.056 7.056 14.112 7.056 24.696z"></path>
<path fill="#000" d="M64.576 455.548v-52.924h21.168c3.528 0 7.056 0 7.056 0 3.528 0 3.528 0 7.056 3.528 3.528 0 3.528 0 3.528 3.528s0 3.528 0 7.056 0 7.056-3.528 10.584c-3.528 3.528-7.056 3.528-17.64 3.528h-10.584v21.168h-7.056zM71.632 427.324h14.112c3.528 0 7.056 0 10.584-3.528s3.528-3.528 3.528-7.056 0-3.528 0-7.056c0 0-3.528-3.528-3.528-3.528s-3.528 0-7.056 0h-17.64v21.168z"></path>
<path fill="#000" d="M117.496 455.548v-52.924h21.168c3.528 0 7.056 0 10.584 0s3.528 3.528 7.056 3.528c0 3.528 3.528 3.528 3.528 7.056s0 7.056-3.528 10.584c-3.528 3.528-7.056 3.528-10.584 3.528 3.528 0 3.528 3.528 3.528 3.528 3.528 3.528 3.528 3.528 7.056 7.056l10.584 14.112h-10.584l-7.056-10.584c-3.528-3.528-3.528-7.056-3.528-7.056s-3.528-3.528-3.528-3.528-3.528 0-3.528 0c0 0-3.528 0-3.528 0h-10.584v24.696h-7.056zM124.552 423.796h14.112c3.528 0 7.056 0 7.056 0 3.528 0 3.528 0 3.528-3.528 0 0 0-3.528 0-3.528 0-3.528 0-3.528-3.528-7.056 0-3.528 0-3.528-7.056-3.528h-14.112v17.64z"></path>
<path fill="#000" d="M170.42 455.548v-52.924h38.812v3.528h-31.752v17.64h31.752v7.056h-31.752v17.64h31.752v7.056h-38.812z"></path>
<path fill="#000" d="M219.816 455.548v-52.924h10.584l14.112 35.284c0 3.528 3.528 7.056 3.528 7.056 0-3.528 0-3.528 3.528-7.056l14.112-38.812h10.584v52.924h-10.584v-45.868l-14.112 45.868h-7.056l-14.112-45.868v45.868h-10.584z"></path>
<path fill="#000" d="M286.852 455.548v-52.924h7.056v52.924h-7.056z"></path>
<path fill="#000" d="M339.776 399.096h7.056v31.752c0 7.056 0 10.584-3.528 14.112 0 3.528-3.528 7.056-7.056 7.056-3.528 3.528-7.056 3.528-14.112 3.528-3.528 0-10.584 0-14.112-3.528-3.528 0-7.056-3.528-7.056-7.056s-3.528-7.056-3.528-14.112v-31.752h7.056v31.752c0 3.528 0 7.056 0 10.584s3.528 3.528 3.528 3.528 3.528 3.528 7.056 3.528c3.528 0 10.584 0 10.584-3.528 3.528-3.528 3.528-7.056 3.528-14.112v-31.752z"></path>
<path fill="#000" d="M360.944 455.548v-52.924h10.584l14.112 38.812c0 3.528 3.528 7.056 3.528 7.056 0-3.528 0-3.528 3.528-7.056l14.112-38.812h10.584v52.924h-7.056v-45.868l-14.112 45.868h-7.056l-14.112-45.868v45.868h-14.112z"></path>
</svg>
