<!-- Generated by IcoMoon.io -->
<svg version="1.1" xmlns="http://www.w3.org/2000/svg" width="23" height="32" viewBox="0 0 23 32">
<title>Satelite-RADIO</title>
<path d="M20.981 30.674l-8.825-18.344c0.916-0.6 1.168-1.816 0.568-2.731s-1.816-1.168-2.731-0.568-1.168 1.816-0.568 2.731c0.111 0.158 0.237 0.3 0.379 0.426l-8.209 18.502h-1.594v1.31h22.733v-1.31l-1.752-0.016zM5.668 24.77l1.421 1.373-3.031 2.258 1.61-3.631zM10.34 30.674h-7.136l4.847-3.599 2.289 2.21v1.389zM10.34 27.359l-1.121-1.152 1.121-0.837v1.989zM10.34 23.728l-2.037 1.516-1.942-2.005 3.978-8.983v9.472zM18.392 28.322l-3.142-2.273 1.389-1.389 1.752 3.663zM11.651 14.287l4.373 9.109-1.863 1.863-2.51-1.816v-9.156zM11.651 25.070l1.579 1.137-1.579 1.579v-2.715zM11.651 30.674v-1.042l2.652-2.652 5.099 3.694h-7.751z"></path>
<path d="M10.656 1.295c5.636 0.458 9.819 5.383 9.362 11.019-0.047 0.537-0.126 1.058-0.253 1.579l1.184 0.458c1.579-6.141-2.115-12.409-8.257-13.987-1.721-0.442-3.536-0.474-5.273-0.11l0.316 1.231c0.963-0.205 1.942-0.268 2.921-0.189z"></path>
<path d="M17.523 13.024l1.2 0.458c1.105-4.91-1.973-9.788-6.883-10.893-1.263-0.284-2.573-0.3-3.836-0.032l0.316 1.231c4.247-0.837 8.367 1.926 9.204 6.173 0.205 1.010 0.205 2.052 0 3.063z"></path>
<path d="M15.029 12.061l1.373 0.521c0.032-0.189 0.063-0.379 0.063-0.568 0.3-3.663-2.431-6.867-6.094-7.167-0.584-0.047-1.168-0.016-1.752 0.095l0.363 1.389c2.842-0.474 5.541 1.452 6.015 4.294 0.063 0.426 0.095 0.853 0.047 1.279 0 0.063-0.016 0.111-0.016 0.158z"></path>
</svg>
