<svg class="svg-icon svg-key_feature_sunroof_moonroof " width="1.1" height="1.1" aria-hidden="true" role="img" focusable="false" xmlns="http://www.w3.org/2000/svg" xmlns:xlink="http://www.w3.org/1999/xlink" x="0px" y="0px" viewBox="0 0 512 512" enable-background="new 0 0 512 512"><path d="M495.892,180.227c-10.027-18.869-64.262-23.002-89.127-23.273c-12.026-0.169-26.051,1.05-42.65,0.983 c-3.32,0-6.673-0.034-10.095-0.034c-0.373-0.745-1.22-2.134-2.236-3.862c-1.491-2.473-3.354-5.556-4.573-7.995 c-2.371-4.438-5.352-5.691-9.113-6.199c-0.034,0-0.068,0-0.068,0c-0.068-0.034-0.135-0.068-0.237-0.102 c-0.847-0.068-1.423,0.102-1.728,0.542c-0.474,0.576-0.339,1.457-0.135,2.304c0.169,0.542,0.711,2.236,1.355,4.234 c1.084,3.421,2.608,8.096,2.879,9.18c0.169,0.711,0.339,1.355,0.61,1.897c-98.307-0.068-237.74,0.915-258.743,2.405 c-31.606,2.27-56.911,9.993-63.653,15.955C11.535,182.327,1,209.428,1,256.041c0,46.579,10.535,73.68,17.378,79.676 c6.741,6.064,32.047,13.686,63.653,15.956c21.003,1.558,160.47,2.507,258.743,2.439c-0.237,0.508-0.44,1.118-0.61,1.863 c-0.305,1.22-1.829,5.996-2.981,9.519c-0.576,1.863-1.084,3.388-1.253,3.93c-0.203,0.881-0.339,1.795,0.135,2.371 c0.237,0.339,0.678,0.474,1.22,0.474c0.169,0,0.339,0,0.474-0.034h0.271c0.034,0,0.034,0,0.068,0 c3.76-0.508,6.775-1.796,9.113-6.301c1.186-2.304,2.947-5.251,4.37-7.622c1.118-1.863,2.033-3.388,2.439-4.234h10.095 c16.599,0,30.624,1.118,42.65,1.05c24.865-0.271,79.134-4.505,89.127-23.273c5.183-9.756,15.108-44.953,15.108-75.848 C511,225.18,501.074,189.983,495.892,180.227z M246.904,166.609c37.229-0.779,73.036-1.118,97.528-1.118l-3.591,4.81 c-36.688,5.556-70.326,9.824-103.253,10.468C240.4,175.688,243.923,170.301,246.904,166.609z M296.363,214.103v83.809 c0,7.961-5.962,14.431-13.279,14.431H126.307c-7.351,0-13.279-6.47-13.279-14.431v-83.809c0-7.961,5.928-14.397,13.279-14.397 h156.777C290.401,199.706,296.363,206.142,296.363,214.103z M226.545,166.982c-2.033,4.133-3.794,9.045-5.183,13.855 c-31.606-0.068-56.81-0.17-77.948-0.44l-3.625-5.217l-3.151-4.878C162.452,168.811,194.499,167.761,226.545,166.982z M95.717,176.975c3.692-0.881,6.673-1.491,7.656-1.66c3.421-0.61,6.843-1.152,10.603-1.491c3.591-0.44,5.352-0.169,8.774,1.389 l6.335,2.812c2.642,1.321,2.439,2.032-0.339,1.931c-12.128-0.237-22.934-0.61-32.86-1.118 C91.313,178.635,91.516,177.957,95.717,176.975z M45.682,311.835c-5.352,0-7.114-1.762-8.096-6.233 c-3.252-15.38-4.742-31.335-4.742-49.594c0-18.191,1.491-34.147,4.742-49.526c0.983-4.472,2.744-6.233,8.096-6.233h41.769 c5.623,0,7.757,2.473,7.385,7.046c-1.389,16.667-1.829,30.556-1.829,48.713c0,18.259,0.44,32.148,1.829,48.815 c0.373,4.573-1.762,7.012-7.385,7.012H45.682z M129.084,333.955l-6.335,2.812c-3.421,1.694-5.183,1.863-8.774,1.491 c-3.76-0.406-7.215-0.881-10.637-1.491c-0.949-0.237-3.93-0.881-7.622-1.762c-4.234-0.948-4.404-1.558,0.169-1.829 c9.926-0.44,20.732-0.881,32.826-1.118C131.524,332.025,131.727,332.736,129.084,333.955z M138.468,341.679l3.286-5.081 l3.489-4.912c21.138-0.339,46.342-0.44,77.948-0.44c1.423,4.743,3.184,9.756,5.183,13.787 C196.328,344.321,164.281,343.17,138.468,341.679z M246.904,345.473c-2.981-3.693-6.504-9.045-9.316-14.16 c32.927,0.644,66.566,4.844,103.253,10.366l3.591,4.912C319.941,346.523,284.134,346.252,246.904,345.473z M402.428,330.636 c-2.642,5.759-3.726,7.588-8.977,7.588c-1.694,0-3.862-0.203-6.572-0.508c-10.434-1.152-23.103-3.015-37.771-5.183 c-9.384-1.355-19.072-2.778-29.303-4.201c-7.046-0.982-9.553-3.93-8.977-10.468c2.371-21.409,3.591-42.209,3.591-61.857 c0-19.716-1.22-40.516-3.591-61.756c-0.576-6.673,1.965-9.621,8.977-10.501c10.095-1.389,19.648-2.812,28.93-4.167 c14.804-2.202,27.609-4.099,38.144-5.251c2.88-0.305,4.98-0.508,6.674-0.508c5.183,0,6.267,1.829,8.875,7.622 c9.587,21.274,15.143,40.278,15.143,74.561C417.571,290.357,412.015,309.362,402.428,330.636z M493.215,306.211 c-3.591,11.179-7.148,18.835-11.213,24.086c-4.133,5.454-7.724,7.046-12.907,8.062c-6.436,1.253-20.63,1.592-27.981,1.592 c-1.219,0-1.66-0.474-1.761-0.881c-0.305-0.982,0.745-2.27,1.592-2.879c2.608-1.999,8.909-7.893,12.67-11.416 c1.355-1.253,2.371-2.202,2.744-2.541c0.305-0.271,0.576-0.61,0.847-0.983c0.881-1.05,1.863-2.27,4.573-3.15 c13.821-4.099,24.357-8.774,29.709-13.178c0.983-0.779,1.558-0.847,1.897-0.373C493.588,304.856,493.554,305.364,493.215,306.211z M493.385,207.531c-0.135,0.203-0.339,0.271-0.542,0.271c-0.339,0-0.779-0.203-1.389-0.745c-5.319-4.37-15.82-9.045-29.574-13.144 c-2.812-0.847-3.794-2.066-4.641-3.15c-0.305-0.373-0.576-0.711-0.915-1.016c-0.339-0.305-1.253-1.186-2.507-2.337 c-3.591-3.354-10.23-9.553-12.873-11.484c-0.847-0.61-1.931-1.931-1.592-2.947c0.135-0.44,0.542-0.949,1.761-0.949 c9.926,0,22.46,0.542,27.981,1.694c5.183,1.016,8.774,2.609,12.907,7.961c4.133,5.42,7.69,13.11,11.213,24.187 C493.554,206.718,493.588,207.226,493.385,207.531z" fill="#333333"></path><path d="M126.307,204.787c-4.539,0-8.198,4.167-8.198,9.316v83.809c0,5.149,3.659,9.35,8.198,9.35h78.389V204.787 H126.307z" fill="#333333"></path><path d="M221.921,204.787c0,0,10.088-1.533,10.088,5.877v88.712c0,0,1.059,7.885-6.14,7.885h-18.853V204.787 H221.921z" fill="#333333"></path><path d="M283.304,204.787h-47.908c0.658,1.014,1.167,2.132,1.434,3.388h46.475c2.581,0,4.681,2.659,4.681,5.928 v83.809c0,3.288-2.1,5.962-4.681,5.962h-46.561c-0.261,1.105-0.677,2.265-1.349,3.388h47.91c4.417,0,7.978-4.201,7.978-9.35 v-83.809C291.282,208.954,287.721,204.787,283.304,204.787z" fill="#333333"></path></svg>