<svg class="di-svg" fill="#000000" height="24" width="24" xmlns="http://www.w3.org/2000/svg" xmlns:xlink="http://www.w3.org/1999/xlink" version="1.1" viewBox="0 0 48 48"><g><path d="M28.5,18.7c0.1,0,0.2,0,0.3,0v-3.2c0-1.1-0.6-1.9-1.4-1.9h-6.9c-0.8,0-1.4,0.9-1.4,1.9v3.2c0.1,0,0.2,0,0.3,0 L28.5,18.7L28.5,18.7z"/><path d="M29,30.5c-0.1-0.9-0.7-1.5-1.3-1.5h-7.4c-0.6,0-1.2,0.7-1.3,1.5l-0.1,0.9c-0.1,0.9,0.3,1.5,1,1.5h8.4 c0.6,0,1.1-0.7,1-1.5L29,30.5z"/><path d="M43.3,37.8c-0.4-0.9-1.3-1.7-2.1-1.7h-9c-0.8,0-1.3,0.9-1.1,1.9l0.2,1.2c0.1,1,0.9,1.9,1.7,1.9h10.2 c0.8,0,1.1-0.8,0.8-1.7L43.3,37.8z"/><path d="M19.2,17.1v9.5c0,0.9,0.5,1.6,1.2,1.6h7.3c0.6,0,1.2-0.7,1.2-1.6v-9.5c0-0.9-0.5-1.6-1.2-1.6h-7.3 C19.7,15.5,19.2,16.3,19.2,17.1"/><path d="M15.8,36.1h-9c-0.8,0-1.7,0.8-2.1,1.7l-0.6,1.5c-0.4,0.9,0,1.7,0.8,1.7h10.2c0.8,0,1.5-0.9,1.7-1.9l0.2-1.2 C17.1,36.9,16.5,36.1,15.8,36.1"/><path d="M26.7,9.4h-5.4c-0.8,0-1.4,0.9-1.4,1.9V13c0.2-0.1,0.4-0.2,0.7-0.2H22c-0.1-0.2-0.1-0.4-0.1-0.6v-0.5 c0-0.8,0.5-1.4,1-1.4h2.2c0.6,0,1,0.6,1,1.4v0.5c0,0.2,0,0.4-0.1,0.6h1.4c0.2,0,0.5,0.1,0.7,0.2v-1.7C28.1,10.3,27.5,9.4,26.7,9.4" /><path d="M35.5,9.4h-5.4c-0.8,0-1.4,0.9-1.4,1.9v2.2c0.2,0.2,0.4,0.5,0.5,0.9c0.3-0.9,1-1.5,1.8-1.5h1.4 c-0.1-0.2-0.1-0.4-0.1-0.6v-0.5c0-0.8,0.5-1.4,1-1.4h2.2c0.6,0,1,0.6,1,1.4v0.5c0,0.2,0,0.4-0.1,0.6h0.5v-1.5 C37,10.3,36.3,9.4,35.5,9.4"/><path d="M36.1,12.2v-0.5c0-0.4-0.2-0.7-0.5-0.7h-2.2c-0.3,0-0.5,0.3-0.5,0.7v0.5c0,0.3,0.1,0.5,0.2,0.6h2.8 C35.9,12.7,36.1,12.5,36.1,12.2"/><path d="M35.4,13.2h-2c-0.4,0-0.8-0.5-0.8-1.1v-0.3c0-0.6,0.4-1.1,0.8-1.1h2c0.4,0,0.8,0.5,0.8,1.1v0.3 C36.2,12.7,35.8,13.2,35.4,13.2"/><path d="M25,13.2h-2c-0.4,0-0.8-0.5-0.8-1.1v-0.3c0-0.6,0.4-1.1,0.8-1.1h2c0.4,0,0.8,0.5,0.8,1.1v0.3 C25.8,12.7,25.4,13.2,25,13.2"/><path d="M14.6,13.2h-2c-0.4,0-0.8-0.5-0.8-1.1v-0.3c0-0.6,0.4-1.1,0.8-1.1h2c0.4,0,0.8,0.5,0.8,1.1v0.3 C15.4,12.7,15,13.2,14.6,13.2"/><path d="M24.8,9h-1.6c-0.4,0-0.6-0.4-0.6-0.9V7.9c0-0.5,0.3-0.9,0.6-0.9h1.6c0.4,0,0.6,0.4,0.6,0.9v0.3 C25.4,8.6,25.2,9,24.8,9"/><path d="M33.6,9H32c-0.4,0-0.6-0.4-0.6-0.9V7.9C31.4,7.4,31.7,7,32,7h1.6c0.4,0,0.6,0.4,0.6,0.9v0.3 C34.3,8.6,34,9,33.6,9"/><path d="M16,9h-1.6c-0.4,0-0.6-0.4-0.6-0.9V7.9C13.7,7.4,14,7,14.4,7H16c0.4,0,0.6,0.4,0.6,0.9v0.3 C16.6,8.6,16.3,9,16,9"/><path d="M41.2,19.6h-2.1c-0.2,0.4-0.5,0.6-0.9,0.6h-3.1c-0.4,0-0.7-0.3-0.9-0.6h-2.1c-0.8,0-1.4,0.9-1.4,1.9v11.7 c0,1.1,0.6,1.9,1.4,1.9h9c0.8,0,1.4-0.9,1.4-1.9V21.6C42.6,20.5,42,19.6,41.2,19.6"/><path d="M34.2,17.8c0-0.8,0.5-1.4,1-1.4h3.1c0.5,0,0.8,0.4,1,1v-1.8c0-1.1-0.6-1.9-1.4-1.9H31c-0.8,0-1.4,0.9-1.4,1.9 v4.7c0.4,0,0.4,0,0.8,0c0.4-0.9,1.1-1.5,1.9-1.5h1.9L34.2,17.8L34.2,17.8z"/><path d="M38.1,19.8h-2.7c-0.4,0-0.8-0.5-0.8-1.1V18c0-0.6,0.4-1.1,0.8-1.1h2.7c0.4,0,0.8,0.5,0.8,1.1v0.7 C38.9,19.3,38.5,19.8,38.1,19.8"/><path d="M12.6,19.8H9.9c-0.4,0-0.8-0.5-0.8-1.1V18c0-0.6,0.4-1.1,0.8-1.1h2.7c0.4,0,0.8,0.5,0.8,1.1v0.7 C13.4,19.3,13.1,19.8,12.6,19.8"/><path d="M12.8,20.3H9.7c-0.4,0-0.7-0.3-0.9-0.6H6.8c-0.8,0-1.4,0.9-1.4,1.9v11.7c0,1.1,0.6,1.9,1.4,1.9h9 c0.8,0,1.4-0.9,1.4-1.9V21.6c0-1.1-0.6-1.9-1.4-1.9h-2.1C13.5,20,13.2,20.3,12.8,20.3"/><path d="M17,13.7h-6.9c-0.8,0-1.4,0.9-1.4,1.9v1.8c0.1-0.6,0.5-0.9,1-0.9h3.1c0.6,0,1,0.6,1,1.4v0.9h1.9 c0.8,0,1.5,0.6,1.9,1.5c0.3,0,0.3,0,0.8,0v-4.7C18.4,14.5,17.8,13.7,17,13.7"/><path d="M17.9,9.4h-5.4c-0.8,0-1.4,0.9-1.4,1.9v1.5h0.5c-0.1-0.2-0.1-0.4-0.1-0.6v-0.5c0-0.8,0.5-1.4,1-1.4h2.2 c0.6,0,1,0.6,1,1.4v0.5c0,0.2,0,0.4-0.1,0.6H17c0.8,0,1.5,0.6,1.8,1.5c0.1-0.3,0.3-0.6,0.5-0.9v-2.2C19.3,10.3,18.6,9.4,17.9,9.4" /></g></svg>