<svg xmlns="http://www.w3.org/2000/svg" xmlns:xlink="http://www.w3.org/1999/xlink" width="256" height="256" preserveAspectRatio="xMidYMid meet" viewBox="0 0 256 256" style="-ms-transform: rotate(360deg); -webkit-transform: rotate(360deg); transform: rotate(360deg);"><path d="M171.41 157.438a12 12 0 1 1-16.69 17.247a38.778 38.778 0 0 0-53.455 0a12 12 0 0 1-16.69-17.247a62.776 62.776 0 0 1 86.835 0zm-43.418-65.435a109.717 109.717 0 0 0-77.429 31.562a12 12 0 0 0 16.83 17.11a86.754 86.754 0 0 1 121.198 0a12 12 0 1 0 16.83-17.11a109.717 109.717 0 0 0-77.429-31.562zm111.368-2.354a158.681 158.681 0 0 0-222.735 0a12 12 0 1 0 16.878 17.061a134.682 134.682 0 0 1 188.978 0A12 12 0 1 0 239.36 89.65zM128 184a16 16 0 1 0 16 16a16.018 16.018 0 0 0-16-16z" fill="#626262"/><rect x="0" y="0" width="256" height="256" fill="rgba(0, 0, 0, 0)" /></svg>