<?xml version="1.0" encoding="utf-8"?>
<!-- Generator: Adobe Illustrator 23.0.1, SVG Export Plug-In . SVG Version: 6.00 Build 0)  -->
<svg version="1.1" id="Шар_1" xmlns="http://www.w3.org/2000/svg" xmlns:xlink="http://www.w3.org/1999/xlink" x="0px" y="0px"
	 viewBox="0 0 40 16" style="enable-background:new 0 0 40 16;" xml:space="preserve">
<style type="text/css">
	.st0{fill:none;}
	.st1{fill:#4C4C4C;}
</style>
<title>Icons / Convertible</title>
<path class="st0" d="M7-14.1c-0.3,0.1-1,0.7-1.2,0.6c1.3,0.5,2.6,0.8,3.9,1c0-0.8-0.1-1.6-0.1-2.4C8.7-14.8,7.8-14.5,7-14.1z"/>
<g>
	<path d="M39.5,11.4L39.5,11.4L39.5,11.4L39.5,11.4L40,9.5V8.1c-1-0.6-2.1-1.2-3.3-1.6c-2.4-0.9-4.6-1.4-7.2-1.4
		c-0.7,0-1.9,0.2-2.6,0l-1.3-0.5l-0.3-0.2l-0.2-0.1l-4-1.9c-1.5-0.7-3.3-0.9-5-0.9h-0.7c-0.4,0-0.7,0-1.1,0h-0.9c-1,0-2,0.1-3,0.3
		C9.8,2,9.1,2.2,8,2.5c-0.1,0-0.3,0.1-0.4,0.1C7.4,2.7,7.1,2.8,6.7,2.9C5.6,3.3,4.7,3.7,3,4.3C2,4.7,1.2,5,0.7,5.2l0,0l0,0
		C0.4,5.4,0.1,5.5,0.1,5.5c0,0,0,0,0,0c0,0,0,0,0,0.1L0,5.7v3.1c0.8,1,1.6,2,2.5,3c0,0,0.1,0.1,0.3,0.2c0.4,0.3,0.8,0.5,1.2,0.7
		c0.4,0.4,0.9,0.8,1.4,1c0.6,0.5,1.4,0.8,2.3,0.8c1,0,1.9-0.4,2.6-1c0.3-0.2,0.6-0.4,0.9-0.7h17.3c0,0,0,0,0.1,0
		c0.5,0.2,0.9,0.3,1.2,0.3c0.7,0.9,1.7,1.4,2.9,1.4c1.5,0,2.7-0.9,3.4-2.1c0,0.1,0.1,0.2,0.1,0.3c0,0,0,0,0.1,0
		c0.2,0.2,0.7,0.1,1.5,0.2c0.7,0,1.4,0,1.5-0.1l0.8-1.1L39.5,11.4z M7.6,13.1c-1.3,0-2.4-1.1-2.4-2.4s1.1-2.4,2.4-2.4
		S10,9.4,10,10.7S8.9,13.1,7.6,13.1z M9.3,3.9C9.2,3.8,9.1,3.8,9,3.7c0.3-0.1,0.8-0.5,1-0.5c0.8-0.4,1.7-0.7,2.5-0.8
		c0,0.8,0.1,1.6,0.1,2.4C11.5,4.5,10.4,4.3,9.3,3.9z M20.5,4.9L20.5,4.9c-0.3,0-0.6,0-0.9,0l-5.3-0.1l-0.9-2.6
		c0.9-0.1,1.8-0.1,2.8,0l0,0c1.3,0.1,2.7,0.2,3.9,0.6c0.3,0.1,1,0.4,1.8,0.9C22.4,4,23,4.6,23.2,5L20.5,4.9z M32.6,13.1
		c-1.3,0-2.4-1.1-2.4-2.4s1.1-2.4,2.4-2.4S35,9.4,35,10.7S33.9,13.1,32.6,13.1z"/>
</g>
</svg>
