<!-- Generated by IcoMoon.io -->
<svg version="1.1" xmlns="http://www.w3.org/2000/svg" width="80" height="32" viewBox="0 0 80 32">
<title>hatchback-second</title>
<path fill="#4c4c4c" d="M79.8 17c0.2-0.4 0-1 0-1.2-0.2-0.2-0.4-0.4-0.6-0.6s-0.6-0.4-1-0.6c-0.8-0.2-1.6-0.2-2.2-0.2 0.6 0 1.6 0 2.2 0.2l-0.2-0.2c-2-0.8-4-1.6-6-2-2.2-0.6-3.6-1-10.4-1.6-3-0.2-4.6-0.4-5.8-0.8 0 0-0.2 0-0.8-0.2-0.8-0.4-1.6-0.8-2.4-1.2-0.6-0.2-1-0.6-1.6-0.8-2.4-1.2-4.6-2.4-7-3.4-2.6-1-5-1.4-7.6-1.4-4 0-8 0-12 0-0.8 0-2.2 0-4 0.2-2 0.6-4 1.2-6 1.8-4.4 1.4-8.6 2.8-12.6 4.2-0.2 0-0.4 0-0.6 0 0 0.6 0.2 1.4 0.2 2l0.2 0.6v1.8c0 0.2-0.2 0.8-0.2 1.2-0.2 1-0.6 1.8-0.8 2 0 0.2-0.2 0.4-0.2 0.6-0.2 0.4-0.2 0.8-0.2 1.2v-0.2l-0.2 1 0.4 1.6h0.2c0.6 1 1.8 1.6 2.8 2 2.4 0.8 4.8 1 7.2 1.2 0.6 3.2 3.4 5.6 6.8 5.6 3 0 5.6-2 6.6-4.6 11.8 0 23.8 0 35.6 0 0.2 0 0.6 0 0.8-0.2 0.4-0.4 0.4-1 0.4-1.6v-0.2c0.2 3.8 3.2 6.8 7 6.8 3.2 0 5.8-2 6.6-4.8 1 0 2 0 3 0 0.6 0 1.2 0 1.6-0.4 0.6-0.4 0.6-1 0.8-1.6 0.4-2.2 0.2-4.8 0-6.2zM17.6 27.2c-2.4 0-4.4-2-4.4-4.4s2-4.4 4.4-4.4 4.4 2 4.4 4.4c0 2.4-2 4.4-4.4 4.4zM24.4 10h-1.4c-0.6-0.4-1-1.2-1-2 0-1.4 1-2.2 2-2.8 0 0 0.2-0.2 0.4-0.4v5.2zM34.2 10.2l-8.6-0.2v-5.2h8.6v5.4zM35.8 10.4v-5.4c1 0 2 0 3 0.2 1.4 0.2 2.6 0.6 3.8 1.2 3 1.2 5.8 2.8 8.6 4.4l-15.4-0.4zM68 27.2c-2.4 0-4.4-2-4.4-4.4s2-4.4 4.4-4.4 4.4 2 4.4 4.4c0 2.4-2 4.4-4.4 4.4z"></path>
</svg>
