<?xml version="1.0" encoding="utf-8"?>
<!-- Generator: Adobe Illustrator 23.0.1, SVG Export Plug-In . SVG Version: 6.00 Build 0)  -->
<svg version="1.1" id="Шар_1" xmlns="http://www.w3.org/2000/svg" xmlns:xlink="http://www.w3.org/1999/xlink" x="0px" y="0px"
	 viewBox="0 0 40 16" style="enable-background:new 0 0 40 16;" xml:space="preserve">
<style type="text/css">
	.st0{fill:none;}
	.st1{fill:#4C4C4C;}
	.st2{fill:#FFFFFF;}
</style>
<title>Icons / Sedan</title>
<path  d="M16,11.8c-0.6-1.2-1-2.2-1.2-3.2c-0.1-0.9-0.2-1.8-0.3-2.8l0,0.4l0.2,3l-0.3-0.2c0.2,0.8,0.5,1.7,1,2.8H16z"/>
<path d="M39.7,10.1L39.3,10V9.6h0.1c0-0.7,0.1-1.3-0.1-2c-0.1-0.4-0.2-0.5-0.5-0.6h-0.1c-0.2-0.3-0.6-0.6-1.2-0.8
	c-0.9-0.3-1.8-0.4-2.8-0.4c-1.5-0.1-3-0.3-4.5-0.4c-0.5-0.5-1.1-1-1.9-1.5c-2.1-1.3-4.5-1.6-6.9-1.6h-6.7l-0.2,3.5
	c0,1,0.1,1.9,0.3,2.8c0.2,1,0.6,2,1.2,3.2h-0.6c-0.5-1.1-0.8-1.9-1-2.8l-0.1,0l-0.1-0.9c-0.1-0.6-0.2-1.2-0.2-1.9L14,5.6L1.2,5.5
	v1.1H0.8v2c0,0.1,0,0.2,0.1,0.2H1l0.6,0.6H0.2c0.1,0,0.4,1,0.5,1.1c0.5,0.7,1.6,0.7,2.3,0.8c0.1,0,0.6,0.1,1.1,0.2h0.1
	c0.1,0,0.2,0,0.3,0.1c0,0.3,0.1,0.6,0.1,0.9c0.1,0.3,0.2,0.6,0.4,0.9c0.6,1,1.7,1.7,3,1.7c1.4,0,2.6-0.8,3.2-2h18.7l0.1-0.4
	c0.1,0.2,0.2,0.4,0.3,0.7c0.6,1,1.7,1.7,3,1.7c1.5,0,2.8-1,3.3-2.3c0,0.4-0.1,0.5-0.1,0.5c-0.1,0.2-0.1,0.3,0,0.4
	c0.1,0.1,0.2,0.2,0.6,0.1c0.5-0.1,0.9-0.3,1.1-0.4c0.5-0.3,0.9-0.6,1.2-1s0.5-0.9,0.6-1.4C39.6,10.8,39.8,10,39.7,10.1z M8,13.7
	c-1.2,0-2.2-1-2.2-2.2s1-2.2,2.2-2.2s2.2,1,2.2,2.2S9.2,13.7,8,13.7z M21.1,6h-5.4V3.4c1.8,0,3.6,0,5.4,0C21.1,4.3,21.1,5.1,21.1,6z
	 M22.3,6V3.5c0.5-0.1,2.7-0.3,4.6,1.1c0.6,0.5,1,1,1.3,1.4C26.2,6,24.2,6,22.3,6z M33.1,13.7c-1.2,0-2.2-1-2.2-2.2s1-2.2,2.2-2.2
	s2.2,1,2.2,2.2S34.4,13.7,33.1,13.7z"/>
<path  d="M10.7,28.8l0,0.3H11h0c-0.1-0.2-0.2-0.4-0.3-0.7L10.7,28.8z"/>
</svg>
