<!-- Generated by IcoMoon.io -->
<svg version="1.1" xmlns="http://www.w3.org/2000/svg" width="80" height="32" viewBox="0 0 80 32">
<title>van-second</title>
<path fill="#4c4c4c" d="M79.8 22.2c0-0.2 0-0.2 0-0.4 0-0.6-0.2-1.2-0.2-1.8 0-0.4-0.2-1-0.2-1.4-0.2-0.6-0.4-1.2-0.6-1.8 0-0.2-0.2-0.4-0.2-0.6s-0.2-0.2-0.2-0.4c0 0-0.2-0.2-0.2-0.4-0.2-0.4-0.4-0.6-0.6-0.6h-0.4l-0.2-0.2h0.4c-1.2-1-2.6-1.6-4-1.8-2-0.6-4-1.2-6-1.6-1.4-0.4-2.8-0.6-4.2-1h-0.2c-0.6-0.2-1-0.4-1.4-0.6v-0.4h-0.8c-0.8-0.4-1.6-0.8-2.2-1.2-3.4-1.8-6.8-3.6-10.2-4.8-3.2-1-6.2-1.2-9.6-1.6-8.8-0.2-17-0.2-25.2 0.2-0.4 0-2.4 0.2-4.6 0.4-2.8 0.4-2 0.4-3.2 0.4s-1.8 0-2 0.4c-0.4 0.4 0.4 1 0.2 2 0.4 1 0.8 2 0.8 2.8 0.2 1.8-0.6 3.6-2.8 4.4-0.2 0.2-1.6 0.6-1.8 1-0.2 0.8-0.2 1.6 0 2.4 0 0.2 0.2 0.4 0.2 0.6s0.2 0.2 0.2 0.2 0.2 0 0.2 0.2c0.2 0.2 0.2 0.4 0 0.6 0 0.2 0 0.6-0.2 0.8-0.2 0.4-0.2 0.6-0.4 0.8-0.2 0.4-0.2 0.8-0.2 1.2l0.8-0.4c0-0.2 0-0.4 0.2-0.6 0 0.2 0 0.4-0.2 0.8l-0.6 0.2c0 0.2-0.2 0.4-0.2 0.6 0 1.4 0.4 2.8 1.8 3.6 0.6 0.4 1.2 0.4 2 0.6 1.6 0.4 3.4 0.6 5.2 1 1 2.8 3.6 4.8 6.8 4.8 3 0 5.6-1.8 6.6-4.4 0 0 0-0.2 0-0.2 12.4 0 24.8 0.2 37.2 0.2 0.4 0 0.6 0 1-0.2 0 0 0 0.2 0 0.2 1 2.6 3.6 4.4 6.6 4.4 3.4 0 6.4-2.4 7-5.6 0 0.4-0.2 0.6-0.2 0.8 1.8 0.4 4.2 0.4 5.2-1 0 0 0.2 0 0.2-0.2 0 0 0-0.2 0.2-0.2 0-0.2 0.2-0.2 0.2-0.4 0.2 0 0.2-0.4 0.2-0.8-0.2-0.4-0.2-0.6-0.2-1zM10.6 7.2c-0.2-0.2-1.4-1-2.4-1.6-0.2-0.6-0.2-1.2-0.2-1.6 3.8-0.2 7.4-0.6 11.2-0.6h2.8v4.4l-11.4-0.6zM15.8 27.8c-2.4 0-4.4-2-4.4-4.4s2-4.4 4.4-4.4c2.4 0 4.4 2 4.4 4.4s-2 4.4-4.4 4.4zM23 23.4c0-3.6-2.4-6.4-5.8-7.2 3.4 0.8 5.8 3.6 5.8 7.2 0 0 0 0 0 0zM24.6 7.8v-4.4h12.2c1 0 1.8 0 2.6 0.2l0.4 5-15.2-0.8zM54.4 9.2l-1.2-0.4c-0.2-0.2-0.4 0-0.4 0.2v0.2l-10.2-0.4-0.8-5c2.6 0.4 5 1 7.6 2s5 2.4 7.6 3.8l-2.6-0.4zM60 23.2c0 0 0-0.2 0-0.2s0 0.2 0 0.2c0 0 0 0 0 0zM67.2 27.8c-2.4 0-4.4-2-4.4-4.4s2-4.4 4.4-4.4c2.4 0 4.4 2 4.4 4.4s-2 4.4-4.4 4.4z"></path>
</svg>
