<?xml version="1.0" encoding="UTF-8" standalone="no"?><!-- Generator: Gravit.io --><svg xmlns="http://www.w3.org/2000/svg" xmlns:xlink="http://www.w3.org/1999/xlink" style="isolation:isolate" viewBox="0 0 256 256" width="256pt" height="256pt"><defs><clipPath id="_clipPath_pBhfOXw7R8IGXHnkmAZE068HKAIYSebk"><rect width="256" height="256"/></clipPath></defs><g clip-path="url(#_clipPath_pBhfOXw7R8IGXHnkmAZE068HKAIYSebk)"><g><path d=" M 65.194 111.3 C 64.994 111.1 64.794 110.9 64.594 110.7 C 63.994 110.3 63.294 109.6 62.494 110.1 C 61.694 110.6 62.294 111.4 62.494 112 C 62.794 113 62.694 113.4 61.494 113.4 C 55.894 113.6 50.394 113.8 44.794 113.9 C 36.294 114.1 26.694 112.5 18.494 115.8 C 15.694 116.9 14.094 119 11.894 120.8 C 10.794 121.7 9.894 122.8 9.394 124.2 C 7.694 129.9 7.594 135.6 9.394 141.4 C 10.994 146.5 16.194 150.1 21.094 151.5 C 28.394 153.6 35.494 151.9 42.794 152.1 C 48.494 152.2 54.594 152.2 60.794 152.5 C 63.494 152.6 62.994 152.4 62.594 154.7 C 62.494 155.1 62.294 155.5 62.694 155.8 C 63.094 156.1 63.594 155.9 63.994 155.7 C 65.094 155.2 65.694 154.2 66.494 153.4 C 66.794 153.1 67.094 152.7 67.594 152.7 C 71.794 152.7 75.994 152.4 80.094 152.7 C 83.294 152.9 86.594 153.2 89.794 153.1 C 93.694 152.9 97.294 152.3 100.294 149.5 C 103.594 146.5 106.394 143.4 107.194 138.9 C 107.694 135.9 107.694 132.8 107.494 129.8 C 107.294 126.2 106.294 122.9 103.994 120 C 102.494 118.2 100.794 116.8 99.094 115.3 C 97.694 114.1 96.094 113.4 94.294 113.1 C 91.894 112.6 89.494 112.6 87.194 112.5 C 84.294 112.3 81.494 113.1 78.594 113.1 C 75.794 113.2 72.894 113 70.094 113.2 C 68.094 113.3 66.394 113 65.194 111.3 Z  M 35.594 119.6 L 36.294 118 C 37.394 117.8 38.394 117.6 39.494 117.4 L 58.094 117.4 L 62.594 117.5 C 53.794 120.1 44.694 120.1 35.594 119.6 Z  M 31.294 142.5 C 29.194 142.1 26.994 141.6 24.894 141.1 C 23.194 140.7 22.294 139.2 21.894 136.5 C 21.794 135.4 21.694 134.3 21.694 133.5 C 21.694 131.7 21.694 130.1 21.994 128.6 C 22.394 126.7 23.094 125.3 24.494 125 C 26.794 124.5 28.994 123.9 31.294 123.5 C 32.594 123.3 32.894 123.8 32.894 125.7 C 32.694 130.5 32.794 135.3 32.994 140.1 C 32.994 142.3 32.694 142.7 31.294 142.5 Z  M 38.494 148.5 C 37.194 148.3 35.994 148.1 34.894 147.8 L 35.594 146.1 C 40.894 146 46.294 146 51.594 146.1 C 54.694 146.2 57.694 147.1 60.694 147.8 C 62.194 148.2 63.694 148.5 65.194 148.9 L 38.494 148.5 Z  M 103.394 141.6 C 103.794 142.1 103.794 143 103.294 144 C 102.294 146 98.894 149.3 96.594 149.6 C 95.894 149.7 99.094 142.7 99.594 142.2 C 100.894 140.6 102.694 140.6 103.394 141.6 Z  M 77.394 131.9 C 77.494 136.5 77.294 140.6 76.094 144.6 C 75.894 145.3 75.694 146 75.294 146.6 C 74.894 147.2 74.594 147.8 74.294 148.2 C 68.994 146.7 63.594 145.2 58.294 143.7 C 58.294 143.7 58.294 143.6 58.294 143.6 C 59.494 142.2 62.294 138.7 62.594 133.6 C 62.794 129.8 61.794 124.5 58.994 121.9 C 62.094 121.1 67.094 119.6 74.094 117.4 C 74.094 117.4 74.094 117.3 74.094 117.3 C 75.394 119 75.994 121 76.394 123 C 77.194 126.2 77.394 129.3 77.394 131.9 Z  M 102.094 119.7 C 103.094 121.3 102.594 123.1 101.494 123.5 C 100.894 123.7 100.094 123.5 99.194 122.7 C 97.594 121.1 95.494 116.9 95.894 114.7 C 96.094 114 101.794 119.1 102.094 119.7 Z " fill="rgb(0,0,0)"/><path d=" M 205.694 111.5 C 205.494 111.3 205.294 111.1 205.094 110.9 C 204.494 110.5 203.794 109.8 202.994 110.3 C 202.194 110.8 202.794 111.6 202.994 112.2 C 203.294 113.2 203.194 113.6 201.994 113.6 C 196.394 113.8 190.894 114 185.294 114.1 C 176.794 114.3 167.194 112.7 158.994 116 C 156.194 117.1 154.594 119.2 152.394 121 C 151.294 121.9 150.394 123 149.894 124.4 C 147.994 130.1 147.994 135.9 149.694 141.6 C 151.294 146.7 156.494 150.3 161.394 151.7 C 168.694 153.8 175.794 152.1 183.094 152.3 C 188.794 152.4 194.894 152.4 201.094 152.7 C 203.794 152.8 203.294 152.6 202.894 154.9 C 202.794 155.3 202.594 155.7 202.994 156 C 203.394 156.3 203.894 156.1 204.294 155.9 C 205.394 155.4 205.994 154.4 206.794 153.6 C 207.094 153.3 207.394 152.9 207.894 152.9 C 212.094 152.9 216.294 152.6 220.394 152.9 C 223.594 153.1 226.894 153.4 230.094 153.3 C 233.994 153.1 237.594 152.5 240.594 149.7 C 243.894 146.7 246.694 143.6 247.494 139.1 C 247.994 136.1 247.994 133 247.794 130 C 247.594 126.4 246.594 123.1 244.294 120.2 C 242.794 118.4 241.094 117 239.394 115.5 C 237.994 114.3 236.394 113.6 234.594 113.3 C 232.194 112.8 229.794 112.8 227.494 112.7 C 224.594 112.5 221.794 113.3 218.894 113.3 C 216.094 113.4 213.194 113.2 210.394 113.4 C 208.494 113.5 206.894 113.3 205.694 111.5 Z  M 176.094 119.9 L 176.794 118.3 C 177.894 118.1 178.894 117.9 179.994 117.7 L 198.594 117.7 L 203.094 117.8 C 194.294 120.3 185.194 120.3 176.094 119.9 Z  M 171.794 142.7 C 169.694 142.3 167.494 141.8 165.394 141.3 C 163.694 140.9 162.794 139.4 162.394 136.7 C 162.294 135.6 162.194 134.5 162.194 133.7 C 162.194 131.9 162.194 130.3 162.494 128.8 C 162.894 126.9 163.594 125.5 164.994 125.2 C 167.294 124.7 169.494 124.1 171.794 123.7 C 173.094 123.5 173.394 124 173.394 125.9 C 173.194 130.7 173.294 135.5 173.494 140.3 C 173.494 142.5 173.094 142.9 171.794 142.7 Z  M 178.994 148.7 C 177.694 148.5 176.494 148.3 175.394 148 L 176.094 146.3 C 181.394 146.2 186.794 146.2 192.094 146.3 C 195.194 146.4 198.194 147.3 201.194 148 C 202.694 148.4 204.194 148.7 205.694 149.1 L 178.994 148.7 Z  M 243.794 141.8 C 244.194 142.3 244.194 143.2 243.694 144.2 C 242.694 146.2 239.294 149.5 236.994 149.8 C 236.294 149.9 239.494 142.9 239.994 142.4 C 241.294 140.8 243.094 140.8 243.794 141.8 Z  M 217.894 132.1 C 217.994 136.7 217.794 140.8 216.594 144.8 C 216.394 145.5 216.194 146.2 215.794 146.8 C 215.394 147.4 215.094 148 214.794 148.4 C 209.494 146.9 204.094 145.4 198.794 143.9 C 198.794 143.9 198.794 143.8 198.794 143.8 C 199.994 142.4 202.794 138.9 203.094 133.8 C 203.294 130 202.294 124.7 199.494 122.1 C 202.594 121.3 207.594 119.8 214.594 117.6 C 214.594 117.6 214.594 117.5 214.594 117.5 C 215.894 119.2 216.494 121.2 216.894 123.2 C 217.594 126.4 217.894 129.5 217.894 132.1 Z  M 242.594 119.9 C 243.594 121.5 243.094 123.3 241.994 123.7 C 241.394 123.9 240.594 123.7 239.694 122.9 C 238.094 121.3 235.994 117.1 236.394 114.9 C 236.494 114.2 242.194 119.3 242.594 119.9 Z " fill="rgb(0,0,0)"/><path d=" M 134.794 113.1 C 136.694 116.6 139.894 123.4 140.194 132.4 C 140.594 143.1 136.994 151.2 135.094 154.7" fill="rgb(0,0,0)"/><path d=" M 125.394 118.3 C 126.794 120.9 129.194 126 129.494 132.9 C 129.794 141 127.094 147 125.694 149.7" fill="rgb(0,0,0)"/><path d=" M 116.894 125.6 C 117.694 127.1 119.094 130.1 119.294 134 C 119.494 138.7 117.894 142.2 117.094 143.8" fill="rgb(0,0,0)"/><g><rect x="192.894" y="87" width="11.1" height="7.5" transform="matrix(1,0,0,1,0,0)" fill="rgb(0,0,0)"/><rect x="212.794" y="87" width="11.1" height="7.5" transform="matrix(1,0,0,1,0,0)" fill="rgb(0,0,0)"/><rect x="232.494" y="87" width="11.1" height="7.5" transform="matrix(1,0,0,1,0,0)" fill="rgb(0,0,0)"/><rect x="133.294" y="87" width="11.1" height="7.5" transform="matrix(1,0,0,1,0,0)" fill="rgb(0,0,0)"/><rect x="153.194" y="87" width="11.1" height="7.5" transform="matrix(1,0,0,1,0,0)" fill="rgb(0,0,0)"/><rect x="172.894" y="87" width="11.1" height="7.5" transform="matrix(1,0,0,1,0,0)" fill="rgb(0,0,0)"/><rect x="73.794" y="87" width="11.1" height="7.5" transform="matrix(1,0,0,1,0,0)" fill="rgb(0,0,0)"/><rect x="93.594" y="87" width="11.1" height="7.5" transform="matrix(1,0,0,1,0,0)" fill="rgb(0,0,0)"/><rect x="113.394" y="87" width="11.1" height="7.5" transform="matrix(1,0,0,1,0,0)" fill="rgb(0,0,0)"/><rect x="14.194" y="87" width="11.1" height="7.5" transform="matrix(1,0,0,1,0,0)" fill="rgb(0,0,0)"/><rect x="33.994" y="87" width="11.1" height="7.5" transform="matrix(1,0,0,1,0,0)" fill="rgb(0,0,0)"/><rect x="53.794" y="87" width="11.1" height="7.5" transform="matrix(1,0,0,1,0,0)" fill="rgb(0,0,0)"/><rect x="191.494" y="173.6" width="11.1" height="7.5" transform="matrix(1,0,0,1,0,0)" fill="rgb(0,0,0)"/><rect x="211.294" y="173.6" width="11.1" height="7.5" transform="matrix(1,0,0,1,0,0)" fill="rgb(0,0,0)"/><rect x="231.094" y="173.6" width="11.1" height="7.5" transform="matrix(1,0,0,1,0,0)" fill="rgb(0,0,0)"/><rect x="131.894" y="173.6" width="11.1" height="7.5" transform="matrix(1,0,0,1,0,0)" fill="rgb(0,0,0)"/><rect x="151.694" y="173.6" width="11.1" height="7.5" transform="matrix(1,0,0,1,0,0)" fill="rgb(0,0,0)"/><rect x="171.494" y="173.6" width="11.1" height="7.5" transform="matrix(1,0,0,1,0,0)" fill="rgb(0,0,0)"/><rect x="72.294" y="173.6" width="11.1" height="7.5" transform="matrix(1,0,0,1,0,0)" fill="rgb(0,0,0)"/><rect x="92.194" y="173.6" width="11.1" height="7.5" transform="matrix(1,0,0,1,0,0)" fill="rgb(0,0,0)"/><rect x="111.894" y="173.6" width="11.1" height="7.5" transform="matrix(1,0,0,1,0,0)" fill="rgb(0,0,0)"/><rect x="12.694" y="173.6" width="11.1" height="7.5" transform="matrix(1,0,0,1,0,0)" fill="rgb(0,0,0)"/><rect x="32.594" y="173.6" width="11.1" height="7.5" transform="matrix(1,0,0,1,0,0)" fill="rgb(0,0,0)"/><rect x="52.294" y="173.6" width="11.1" height="7.5" transform="matrix(1,0,0,1,0,0)" fill="rgb(0,0,0)"/></g></g></g></svg>