<svg xmlns="http://www.w3.org/2000/svg" xmlns:xlink="http://www.w3.org/1999/xlink" viewBox="0 0 241.39 238.01"><defs><style>.cls-1{fill:none;}.cls-2{clip-path:url(#clip-path);}</style><clipPath id="clip-path"><rect class="cls-1" x="8.36" y="2.42" width="234" height="234"/></clipPath></defs><title>Drives Assistance Package</title><g id="Шар_2" data-name="Шар 2"><g id="Шар_1-2" data-name="Шар 1"><g class="cls-2"><path d="M79.6,39.16a3,3,0,0,0,0-1.09c-.18-1-.21-2.18-1.33-2.43s-1.27,1-1.65,1.72c-.6,1.12-1.06,1.42-2.15.42q-7.85-7.2-15.59-14.52C51,15.81,43.61,5.78,33.19,1.37,29.6-.15,26.35.39,22.67.06a9.49,9.49,0,0,0-5.31.88A35.54,35.54,0,0,0,1.73,16.49c-3.13,6-1.66,14.06,1.54,19.73C8,44.63,16,49.49,22.54,56.19c5.1,5.21,10.64,10.75,16,16.44,2.4,2.52,2.06,1.93-.32,3.6-.41.29-1,.43-.89,1.12s.64.9,1.2,1.09a12.12,12.12,0,0,0,4.33.19c.57,0,1.15-.13,1.61.33,3.83,3.73,7.91,7.25,11.41,11.27a99,99,0,0,0,8.51,9c3.68,3.29,7.56,6,12.84,6.16,5.63.22,11-.08,15.79-3.44a52,52,0,0,0,8.49-8,20.57,20.57,0,0,0,5.6-12.06,49.6,49.6,0,0,0-.31-8.69,13,13,0,0,0-2.35-6.31,62,62,0,0,0-5.93-7c-2.49-2.76-5.73-4.62-8.39-7.15S85,47.64,82.3,45.26C80.36,43.58,79.07,41.84,79.6,39.16ZM45.11,20.22l2-.87c1.17.73,2.32,1.48,3.46,2.24l17,16.7,4,4.18C61.3,37,53.06,28.81,45.11,20.22Zm-24.38,17c-1.58-2.31-3.12-4.66-4.59-7.07C15,28.18,15.47,26,17.53,23.3c.85-1.12,1.81-2.13,2.49-2.88a31.26,31.26,0,0,1,4.62-4.22c2.07-1.46,4-2,5.49-1,2.55,1.54,5.09,3.09,7.53,4.75,1.37.93,1.21,1.74-.58,3.42-4.46,4.2-8.7,8.6-12.8,13.16C22.46,38.5,21.73,38.63,20.74,37.18Zm1.12,12c-1-1.37-1.91-2.65-2.68-3.8l2.19-.93c5,4.67,9.79,9.48,14.53,14.38,2.75,2.85,4.68,6.33,6.72,9.71,1,1.68,2.09,3.33,3,5.06ZM87.15,101c-.13.83-.83,1.63-2.27,2.11-2.71.89-8.72.88-11.07-.94-.66-.51,8.52-4,9.42-4.09C85.71,97.9,87.39,99.51,87.15,101Zm-15-32.1c-4,4.26-7.91,7.81-12.58,10.42A12.85,12.85,0,0,1,57,80.52a23.16,23.16,0,0,1-2.3.59L44.16,62.69l.13-.08a21.66,21.66,0,0,0,12.89-5.28c3.62-3.24,7.37-9,7.14-13.88q5.28,3.06,17.82,9.47l.12,0a18.44,18.44,0,0,1-3,7.28A51.61,51.61,0,0,1,72.16,68.95ZM105.67,80c-.52,2.43-2.57,3.56-4,2.87a2.92,2.92,0,0,1-1.33-2.8c0-2.85,1.77-8.58,4.21-10.28C105.27,69.3,105.86,79.11,105.67,80Z"/><polygon points="79.67 107.63 72.85 134.2 96.56 129.87 83.86 107.61 79.67 107.63"/><polygon points="108.87 80.68 132.25 95.01 135.09 71.08 110.08 76.67 108.87 80.68"/><polygon points="95.71 104.04 116.95 154.18 153.03 117.66 101.26 98.43 95.71 104.04"/><path d="M213.74,171.69a3,3,0,0,0,0-1.09c-.18-1-.21-2.18-1.33-2.43s-1.27,1-1.65,1.72c-.6,1.12-1.06,1.42-2.15.42q-7.85-7.2-15.59-14.52c-7.86-7.46-15.22-17.48-25.64-21.89-3.59-1.52-6.84-1-10.52-1.32a9.49,9.49,0,0,0-5.31.88A35.54,35.54,0,0,0,135.87,149c-3.13,6-1.66,14.06,1.54,19.73,4.76,8.41,12.7,13.27,19.26,20,5.1,5.21,10.64,10.75,16,16.44,2.4,2.52,2.06,1.93-.32,3.6-.41.29-1,.43-.89,1.12s.64.9,1.2,1.09a12.12,12.12,0,0,0,4.33.19c.57,0,1.15-.13,1.61.33,3.83,3.73,7.91,7.25,11.41,11.27a99,99,0,0,0,8.51,9c3.68,3.29,7.56,6,12.84,6.16,5.63.22,11-.08,15.79-3.44a52,52,0,0,0,8.49-8,20.57,20.57,0,0,0,5.6-12.06,49.6,49.6,0,0,0-.31-8.69,13,13,0,0,0-2.35-6.31,62,62,0,0,0-5.93-7c-2.49-2.76-5.73-4.62-8.39-7.15s-5.14-5.16-7.88-7.54C214.49,176.11,213.2,174.37,213.74,171.69Zm-34.49-18.94,2-.87c1.17.73,2.32,1.48,3.46,2.24l17,16.7,4,4.18C195.44,169.54,187.2,161.34,179.25,152.75Zm-24.38,17c-1.58-2.31-3.12-4.66-4.59-7.07-1.19-1.94-.67-4.1,1.38-6.82.85-1.12,1.81-2.13,2.49-2.88a31.26,31.26,0,0,1,4.62-4.22c2.07-1.46,4-2,5.49-1,2.55,1.54,5.09,3.09,7.53,4.75,1.37.93,1.21,1.74-.58,3.42-4.46,4.2-8.7,8.6-12.8,13.16C156.59,171,155.86,171.16,154.87,169.71Zm1.12,12c-1-1.37-1.91-2.65-2.68-3.8l2.19-.93c5,4.67,9.79,9.48,14.53,14.38,2.75,2.85,4.68,6.33,6.72,9.71,1,1.68,2.09,3.33,3,5.06Zm65.3,51.89c-.13.83-.83,1.63-2.27,2.11-2.71.89-8.72.88-11.07-.94-.66-.51,8.52-4,9.42-4.09C219.84,230.42,221.53,232,221.28,233.58Zm-15-32.1c-4,4.26-7.91,7.81-12.58,10.42a12.85,12.85,0,0,1-2.55,1.16,23.16,23.16,0,0,1-2.3.59l-10.58-18.42.13-.08a21.66,21.66,0,0,0,12.89-5.28c3.62-3.24,7.37-9,7.14-13.88q5.28,3.06,17.82,9.47l.12,0a18.44,18.44,0,0,1-3,7.28A51.61,51.61,0,0,1,206.29,201.47Zm33.51,11.05c-.52,2.43-2.57,3.56-4,2.87a2.92,2.92,0,0,1-1.33-2.8c0-2.85,1.77-8.58,4.21-10.28C239.4,201.83,240,211.64,239.8,212.53Z"/></g></g></g></svg>