<?xml version="1.0" encoding="utf-8"?>
<!-- Generator: Adobe Illustrator 21.1.0, SVG Export Plug-In . SVG Version: 6.00 Build 0)  -->
<svg version="1.1" id="Шар_1" xmlns="http://www.w3.org/2000/svg" xmlns:xlink="http://www.w3.org/1999/xlink" x="0px" y="0px"
	 viewBox="0 0 241.3 194.6"  xml:space="preserve">
<title>interior</title>
<path d="M122.9,191.4H232C195.7,191.3,159.3,191.3,122.9,191.4z"/>
<path d="M110.9,132.8l-3.6,0.1l0,0L110.9,132.8L110.9,132.8l50.3-0.3c3.3-1.6,6.4-3.8,9-6.4c-2.6,2.6-5.7,4.8-9,6.4L110.9,132.8z"/>
<path d="M122.7,67.2c0.8-0.8,0.8-2.1,0-3l-22.6-22.6c-0.8-0.8-2.1-0.8-2.9,0s-0.8,2.1,0,3l22.6,22.6C120.6,68,121.9,68,122.7,67.2z"
	/>
<path d="M232,191.4h3.4c1,0,1.9-0.2,2.8-0.6c7.8-4-1.6-12.6-4.5-15.7c-4.7-5-8.6-8.8-11-14.2c-0.9-2.2-1.6-4.4-2-6.8
	c-2.1-12-1.3-25.7,1.4-37.5c3-12.9,5.8-25.9,8.4-38.9c2.5-12.7,4.9-25.4,6.6-38.2c1-7.9,2.6-16.7,1.1-24.7c-0.5-2.8-1.8-9.4-7-12.5
	c-10.9-6.6-16.2,2.3-19.1,11.3c-4.6,14.1-9.4,28.2-14.1,42.2c-1.4,4.2-2.8,8.4-4.3,12.6c-6.6,2.4-12.1,7.1-15.5,13.3
	c-5,9.3-4.7,20.6,0.6,29.8c-0.3,0.7-0.7,1.4-1,2.1h-40.7l9.4-21.6c5.7,2.3,12.2-0.5,14.5-6.3c2.3-5.7-0.5-12.2-6.3-14.5
	c-5.7-2.3-12.2,0.5-14.5,6.3c-1.7,4.2-0.6,9.1,2.7,12.2l-12.5,23.9h-27.2c-1.5,0-3,0.9-3.7,2.2c-0.8,0.6-1.2,1.7-1,2.7l3.1,15.5
	c-9.2,3.6-13.7,14-10.1,23.2c0.7,1.9,1.8,3.6,3.1,5.1h109.7c0.8,0,1.4,0.6,1.4,1.4c0,0.8-0.6,1.4-1.4,1.4l0,0h-95l3.6,26.4h9.9
	C159.3,191.3,195.7,191.3,232,191.4z M170.2,126.1c-2.6,2.6-5.7,4.8-9,6.4l-50.3,0.4l0,0l-3.6,0.1l0,0l0,0l-2.2-11.1l0,0h66.8
	l1.9-0.1C172.8,123.3,171.6,124.7,170.2,126.1z"/>
<path d="M173.8,121.7c-1,1.6-2.2,3-3.6,4.3C171.6,124.7,172.8,123.3,173.8,121.7z"/>
<polygon points="105.1,121.9 107.3,132.9 107.3,132.9 "/>
<path d="M63.2,187.1c-2.2-20.9-0.7-42,4.5-62.4l10.5-17.5c4.6-7.5,14-17.5,12.4-26.9c-0.1-0.6-0.2-1.1-0.3-1.6l16.1-17.1l9.3,9.3
	c1.2,1.3,2.9,2.1,4.6,2.4c4.2,0.5,8-2.4,8.6-6.6c0.3-2.4-0.5-4.7-2.2-6.4l-22.4-22.4c-1.2-1.3-2.9-2.1-4.6-2.4
	c-4.2-0.6-8,2.4-8.6,6.6c-0.1,0.6-0.1,1.1,0,1.7c0.2,1.9,1.1,3.6,2.4,4.9l8.6,8.5L86.3,71.9c-4.6-3.6-12-1.4-18.8,1.4
	c-3.9-2.9-8.4-4.8-13.2-5.7H5.7l14.1,30.8c6.5,14.2,23.8,38.3,4.1,50.1c-2.4,1.5-6,2-9.3,2.5H7.7c-0.5,0.8-1,1.8-1.5,2.8
	c-0.3,0.2-0.5,0.5-0.6,0.8c-0.3,0.5-0.4,1.1-0.5,1.7c-4.8,11-6.3,23.2-4.2,35h62.9C63.6,190,63.3,188.6,63.2,187.1z M97.2,44.6
	c-0.8-0.8-0.8-2.1,0-3c0.8-0.8,2.1-0.8,2.9,0l22.6,22.6c0.8,0.8,0.8,2.1,0,3c-0.8,0.8-2.1,0.8-3,0L97.2,44.6z"/>
<path d="M122.9,191.4H113l0,0C116.4,191.4,119.7,191.4,122.9,191.4z"/>
<path d="M235.3,191.4h0.1H232C233.1,191.4,234.2,191.4,235.3,191.4z"/>
</svg>
