<?xml version="1.0" encoding="utf-8"?>
<!-- Generator: Adobe Illustrator 21.1.0, SVG Export Plug-In . SVG Version: 6.00 Build 0)  -->
<svg version="1.1" id="Шар_1" xmlns="http://www.w3.org/2000/svg" xmlns:xlink="http://www.w3.org/1999/xlink" x="0px" y="0px"
	 viewBox="0 0 221.2 224.2" xml:space="preserve">
<title>Keyless Entry</title>
<g>
	<path class="st0" d="M141.1,122.7c-7-17.7-21.4-31.6-39.3-38l0,0C119.7,91.2,134,105,141.1,122.7l-76.6,73.4l0,0L141.1,122.7
		l0.4-0.3c-3.5-9.1-8.8-17.1-15.6-23.8c6.8,6.6,12.1,14.7,15.6,23.8L141.1,122.7z"/>
	<polygon class="st0" points="65.2,200.3 66.2,199.4 65.2,200.3 58,197.2 23.3,157.4 58,197.2 	"/>
	<polygon class="st0" points="145.5,124.5 145.4,124.3 145.5,124.5 	"/>
	<polygon class="st0" points="100.8,79.5 22.7,156.7 100.8,79.5 	"/>
	<path class="st0" d="M27.6,156.9l0.5,0.6l73.6-72.8c18,6.4,32.3,20.3,39.3,38l0.4-0.3c-3.5-9.1-8.8-17.1-15.6-23.8
		c-6.8-6.6-15-11.8-24.1-15.1L27.6,156.9z"/>
	<polygon class="st0" points="66.2,199.4 65.2,200.3 58,197.2 23.3,157.4 22.7,157.9 58,198.4 65.2,201.4 145.5,124.5 145.4,124.3 
		145.2,123.7 	"/>
	<path class="st1" d="M157.3,2.7c-4.8-1.2-9.7-2.1-14.6-2.5c-8.3-0.7-16.7-0.1-24.8,1.6l2.3,9.1c41.1-8.6,81.4,17.7,90,58.7
		c2.3,11.1,2.2,22.5-0.5,33.5l8.8,3.4C230.3,61.1,202.9,14.5,157.3,2.7z"/>
	<path class="st1" d="M150.8,19.4c-3.2-0.7-6.4-1.2-9.6-1.5c-6.4-0.5-12.8-0.1-19,1.2l2.3,9.1C156.1,22,186.8,42.5,193,74
		c1.5,7.5,1.5,15.3,0,22.8l8.9,3.4C210.2,63.8,187.3,27.6,150.8,19.4z"/>
	<path class="st1" d="M139.8,36.1c-4.3-0.4-8.7-0.1-13,0.7l2.6,10.3c21.2-3.5,41.2,10.8,44.7,32c0.5,3.1,0.7,6.3,0.4,9.5
		c0,0.4-0.1,0.8-0.1,1.1l10.2,3.9c0.2-1.4,0.4-2.8,0.5-4.2C187.3,62.2,167,38.3,139.8,36.1z"/>
	<path d="M146.2,81.5c-10.6-10.6-23.5-18.7-37.7-23.5l-86.9,86L0,165.2c-1.2,1.2,48.3,56.3,56.4,58.9c3.3,1.1,24.2-23,27.2-25.8
		l85-81.4C163.8,103.6,156.1,91.6,146.2,81.5L146.2,81.5z M145.4,124.3l0.1,0.2l0,0l0,0l-80.3,76.9l-7.2-3.1l-35.3-40.5l0.5-0.5
		l-0.5-0.6l78.1-77.3l0,0l0,0l1,0.4c20.1,6.8,36.1,22.5,43.3,42.4l0.4,1.1l-0.3,0.3l0,0L145.4,124.3z"/>
	<polygon points="58,198.4 22.7,157.9 58,198.4 65.2,201.5 145.5,124.6 145.5,124.5 65.2,201.4 	"/>
	<polygon points="145.4,124.3 145.2,123.7 145.2,123.7 	"/>
	<path d="M101.7,84.8L101.7,84.8l-73.6,72.8l0,0l32,36.7l4.3,1.9l76.6-73.4C134,105,119.7,91.2,101.7,84.8z"/>
</g>
</svg>
