<svg width="45" height="45" viewBox="0 0 45 45" fill="none" xmlns="http://www.w3.org/2000/svg">
<path d="M11.46 19.5644C11.4249 19.5293 11.3897 19.4941 11.3545 19.459C11.2491 19.3886 11.126 19.2656 10.9854 19.3535C10.8448 19.4414 10.9502 19.582 10.9854 19.6875C11.0381 19.8633 11.0206 19.9336 10.8096 19.9336C9.82524 19.9687 8.85844 20.0039 7.87407 20.0215C6.37993 20.0566 4.69243 19.7754 3.25102 20.3554C2.75884 20.5488 2.47759 20.9179 2.09087 21.2344C1.89751 21.3926 1.7393 21.5859 1.65141 21.832C1.35259 22.834 1.33501 23.8359 1.65141 24.8554C1.93266 25.7519 2.84673 26.3847 3.70805 26.6308C4.99126 27 6.2393 26.7011 7.52251 26.7363C8.52446 26.7539 9.59673 26.7539 10.6866 26.8066C11.1612 26.8242 11.0733 26.789 11.003 27.1933C10.9854 27.2636 10.9502 27.334 11.0206 27.3867C11.0909 27.4394 11.1788 27.4043 11.2491 27.3691C11.4424 27.2812 11.5479 27.1054 11.6885 26.9648C11.7413 26.9121 11.794 26.8418 11.8819 26.8418C12.6202 26.8418 13.3584 26.789 14.0791 26.8418C14.6416 26.8769 15.2217 26.9297 15.7842 26.9121C16.4698 26.8769 17.1026 26.7715 17.6299 26.2793C18.21 25.7519 18.7022 25.207 18.8428 24.416C18.9307 23.8886 18.9307 23.3437 18.8956 22.8164C18.8604 22.1836 18.6846 21.6035 18.2803 21.0937C18.0166 20.7773 17.7178 20.5312 17.419 20.2676C17.1729 20.0566 16.8916 19.9336 16.5752 19.8808C16.1534 19.7929 15.7315 19.7929 15.3272 19.7754C14.8174 19.7402 14.3252 19.8808 13.8155 19.8808C13.3233 19.8984 12.8135 19.8633 12.3213 19.8984C11.9698 19.916 11.6709 19.8633 11.46 19.5644ZM6.25688 21.0234L6.37993 20.7422C6.57329 20.707 6.74907 20.6719 6.94243 20.6367H10.212L11.003 20.6543C9.4561 21.1113 7.85649 21.1113 6.25688 21.0234ZM5.50102 25.0488C5.13188 24.9785 4.74516 24.8906 4.37602 24.8027C4.0772 24.7324 3.91899 24.4687 3.84868 23.9941C3.8311 23.8008 3.81352 23.6074 3.81352 23.4668C3.81352 23.1504 3.81352 22.8691 3.86626 22.6054C3.93657 22.2715 4.05962 22.0254 4.30571 21.9726C4.71001 21.8847 5.09673 21.7793 5.50102 21.709C5.72954 21.6738 5.78227 21.7617 5.78227 22.0957C5.74712 22.9394 5.7647 23.7832 5.79985 24.6269C5.79985 25.0136 5.74712 25.084 5.50102 25.0488ZM6.76665 26.1035C6.53813 26.0683 6.3272 26.0332 6.13384 25.9804L6.25688 25.6816C7.18852 25.664 8.13774 25.664 9.06938 25.6816C9.6143 25.6992 10.1416 25.8574 10.669 25.9804C10.9327 26.0508 11.1963 26.1035 11.46 26.1738L6.76665 26.1035ZM18.1749 24.8906C18.2452 24.9785 18.2452 25.1367 18.1573 25.3125C17.9815 25.664 17.3838 26.2441 16.9795 26.2969C16.8565 26.3144 17.419 25.084 17.5069 24.9961C17.7354 24.7148 18.0518 24.7148 18.1749 24.8906ZM13.6045 23.1855C13.6221 23.9941 13.587 24.7148 13.376 25.4179C13.3409 25.541 13.3057 25.664 13.2354 25.7695C13.1651 25.875 13.1124 25.9804 13.0596 26.0508C12.128 25.7871 11.1788 25.5234 10.2471 25.2597V25.2422C10.4581 24.9961 10.9502 24.3808 11.003 23.4844C11.0381 22.8164 10.8624 21.8847 10.3702 21.4277C10.9151 21.2871 11.794 21.0234 13.0245 20.6367V20.6191C13.253 20.9179 13.3584 21.2695 13.4288 21.6211C13.5694 22.1836 13.6045 22.7285 13.6045 23.1855ZM17.9463 21.041C18.1221 21.3222 18.0342 21.6386 17.8409 21.709C17.7354 21.7441 17.5948 21.709 17.4366 21.5683C17.1553 21.2871 16.7862 20.5488 16.8565 20.1621C16.8916 20.039 17.8936 20.9355 17.9463 21.041Z" fill="#606060"/>
<path d="M36.1572 19.5996C36.122 19.5644 36.0869 19.5293 36.0517 19.4941C35.9462 19.4238 35.8232 19.3008 35.6826 19.3886C35.5419 19.4765 35.6474 19.6172 35.6826 19.7226C35.7353 19.8984 35.7177 19.9687 35.5068 19.9687C34.5224 20.0039 33.5556 20.039 32.5712 20.0566C31.0771 20.0918 29.3896 19.8105 27.9482 20.3906C27.456 20.584 27.1747 20.9531 26.788 21.2695C26.5947 21.4277 26.4365 21.6211 26.3486 21.8672C26.0146 22.8691 26.0146 23.8886 26.3134 24.8906C26.5947 25.7871 27.5087 26.4199 28.3701 26.666C29.6533 27.0351 30.9013 26.7363 32.1845 26.7715C33.1865 26.789 34.2587 26.789 35.3486 26.8418C35.8232 26.8593 35.7353 26.8242 35.665 27.2285C35.6474 27.2988 35.6122 27.3691 35.6826 27.4218C35.7529 27.4746 35.8408 27.4394 35.9111 27.4043C36.1044 27.3164 36.2099 27.1406 36.3505 27C36.4033 26.9472 36.456 26.8769 36.5439 26.8769C37.2822 26.8769 38.0204 26.8242 38.7411 26.8769C39.3037 26.9121 39.8837 26.9648 40.4462 26.9472C41.1318 26.9121 41.7646 26.8066 42.2919 26.3144C42.872 25.7871 43.3642 25.2422 43.5048 24.4511C43.5927 23.9238 43.5927 23.3789 43.5576 22.8515C43.5224 22.2187 43.3466 21.6386 42.9423 21.1289C42.6787 20.8125 42.3798 20.5664 42.081 20.3027C41.8349 20.0918 41.5536 19.9687 41.2372 19.916C40.8154 19.8281 40.3935 19.8281 39.9892 19.8105C39.4794 19.7754 38.9872 19.916 38.4775 19.916C37.9853 19.9336 37.4755 19.8984 36.9833 19.9336C36.6494 19.9511 36.3681 19.916 36.1572 19.5996ZM30.954 21.0761L31.0771 20.7949C31.2704 20.7597 31.4462 20.7246 31.6396 20.6894H34.9091L35.7001 20.707C34.1533 21.1465 32.5536 21.1465 30.954 21.0761ZM30.1982 25.084C29.829 25.0136 29.4423 24.9258 29.0732 24.8379C28.7744 24.7676 28.6161 24.5039 28.5458 24.0293C28.5283 23.8359 28.5107 23.6426 28.5107 23.5019C28.5107 23.1855 28.5107 22.9043 28.5634 22.6406C28.6337 22.3066 28.7568 22.0605 29.0029 22.0078C29.4072 21.9199 29.7939 21.8144 30.1982 21.7441C30.4267 21.709 30.4794 21.7969 30.4794 22.1308C30.4443 22.9746 30.4619 23.8183 30.497 24.6621C30.497 25.0488 30.4267 25.1191 30.1982 25.084ZM31.4638 26.1386C31.2353 26.1035 31.0244 26.0683 30.831 26.0156L30.954 25.7168C31.8857 25.6992 32.8349 25.6992 33.7665 25.7168C34.3115 25.7344 34.8388 25.8926 35.3662 26.0156C35.6298 26.0859 35.8935 26.1386 36.1572 26.209L31.4638 26.1386ZM42.8544 24.9258C42.9247 25.0136 42.9247 25.1718 42.8369 25.3476C42.6611 25.6992 42.0634 26.2793 41.6591 26.332C41.5361 26.3496 42.0986 25.1191 42.1865 25.0312C42.415 24.75 42.7314 24.75 42.8544 24.9258ZM38.3017 23.2207C38.3193 24.0293 38.2841 24.75 38.0732 25.4531C38.038 25.5761 38.0029 25.6992 37.9326 25.8047C37.8622 25.9101 37.8095 26.0156 37.7568 26.0859C36.8251 25.8222 35.8759 25.5586 34.9443 25.2949V25.2773C35.1552 25.0312 35.6474 24.416 35.7001 23.5195C35.7353 22.8515 35.5595 21.9199 35.0673 21.4629C35.6122 21.3222 36.4911 21.0586 37.7216 20.6718V20.6543C37.9501 20.9531 38.0556 21.3047 38.1259 21.6562C38.249 22.2187 38.3017 22.7636 38.3017 23.2207ZM42.6435 21.0761C42.8193 21.3574 42.7314 21.6738 42.538 21.7441C42.4326 21.7793 42.2919 21.7441 42.1337 21.6035C41.8525 21.3222 41.4833 20.584 41.5536 20.1972C41.5712 20.0742 42.5732 20.9707 42.6435 21.0761Z" fill="#606060"/>
<path d="M35.8584 15.293H33.9072V16.6113H35.8584V15.293Z" fill="#606060"/>
<path d="M39.3564 15.293H37.4053V16.6113H39.3564V15.293Z" fill="#606060"/>
<path d="M42.8193 15.293H40.8682V16.6113H42.8193V15.293Z" fill="#606060"/>
<path d="M25.3818 15.293H23.4307V16.6113H25.3818V15.293Z" fill="#606060"/>
<path d="M28.8799 15.293H26.9287V16.6113H28.8799V15.293Z" fill="#606060"/>
<path d="M32.3428 15.293H30.3916V16.6113H32.3428V15.293Z" fill="#606060"/>
<path d="M14.9229 15.293H12.9717V16.6113H14.9229V15.293Z" fill="#606060"/>
<path d="M18.4033 15.293H16.4521V16.6113H18.4033V15.293Z" fill="#606060"/>
<path d="M21.8838 15.293H19.9326V16.6113H21.8838V15.293Z" fill="#606060"/>
<path d="M4.44629 15.293H2.49512V16.6113H4.44629V15.293Z" fill="#606060"/>
<path d="M7.92676 15.293H5.97559V16.6113H7.92676V15.293Z" fill="#606060"/>
<path d="M11.4072 15.293H9.45605V16.6113H11.4072V15.293Z" fill="#606060"/>
<path d="M35.6123 30.5156H33.6611V31.834H35.6123V30.5156Z" fill="#606060"/>
<path d="M39.0928 30.5156H37.1416V31.834H39.0928V30.5156Z" fill="#606060"/>
<path d="M42.5732 30.5156H40.6221V31.834H42.5732V30.5156Z" fill="#606060"/>
<path d="M25.1357 30.5156H23.1846V31.834H25.1357V30.5156Z" fill="#606060"/>
<path d="M28.6162 30.5156H26.665V31.834H28.6162V30.5156Z" fill="#606060"/>
<path d="M32.0967 30.5156H30.1455V31.834H32.0967V30.5156Z" fill="#606060"/>
<path d="M14.6592 30.5156H12.708V31.834H14.6592V30.5156Z" fill="#606060"/>
<path d="M18.1572 30.5156H16.2061V31.834H18.1572V30.5156Z" fill="#606060"/>
<path d="M21.6201 30.5156H19.6689V31.834H21.6201V30.5156Z" fill="#606060"/>
<path d="M4.18262 30.5156H2.23145V31.834H4.18262V30.5156Z" fill="#606060"/>
<path d="M7.68066 30.5156H5.72949V31.834H7.68066V30.5156Z" fill="#606060"/>
<path d="M11.1436 30.5156H9.19238V31.834H11.1436V30.5156Z" fill="#606060"/>
</svg>
