<svg width="45" height="45" viewBox="0 0 45 45" fill="none" xmlns="http://www.w3.org/2000/svg">
<path d="M36.1569 19.5996C36.1218 19.5644 36.0866 19.5293 36.0515 19.4941C35.946 19.4238 35.8229 19.3008 35.6823 19.3886C35.5417 19.4765 35.6472 19.6172 35.6823 19.7226C35.735 19.8984 35.7175 19.9687 35.5065 19.9687C34.5222 20.0039 33.5554 20.039 32.571 20.0566C31.0768 20.0918 29.3893 19.8105 27.9479 20.3906C27.4558 20.584 27.1745 20.9531 26.7878 21.2695C26.5944 21.4277 26.4362 21.6211 26.3483 21.8672C26.0143 22.8691 26.0143 23.8886 26.3132 24.8906C26.5944 25.7871 27.5085 26.4199 28.3698 26.666C29.653 27.0351 30.9011 26.7363 32.1843 26.7715C33.1862 26.789 34.2585 26.789 35.3483 26.8418C35.8229 26.8593 35.735 26.8242 35.6647 27.2285C35.6472 27.2988 35.612 27.3691 35.6823 27.4218C35.7526 27.4746 35.8405 27.4394 35.9108 27.4043C36.1042 27.3164 36.2097 27.1406 36.3503 27C36.403 26.9472 36.4557 26.8769 36.5436 26.8769C37.2819 26.8769 38.0202 26.8242 38.7409 26.8769C39.3034 26.9121 39.8835 26.9648 40.446 26.9472C41.1315 26.9121 41.7643 26.8066 42.2917 26.3144C42.8718 25.7871 43.364 25.2422 43.5046 24.4511C43.5925 23.9238 43.5925 23.3789 43.5573 22.8515C43.5222 22.2187 43.3464 21.6386 42.9421 21.1289C42.6784 20.8125 42.3796 20.5664 42.0807 20.3027C41.8347 20.0918 41.5534 19.9687 41.237 19.916C40.8151 19.8281 40.3933 19.8281 39.989 19.8105C39.4792 19.7754 38.987 19.916 38.4772 19.916C37.985 19.9336 37.4753 19.8984 36.9831 19.9336C36.6491 19.9511 36.3679 19.916 36.1569 19.5996ZM30.9538 21.0761L31.0768 20.7949C31.2702 20.7597 31.446 20.7246 31.6393 20.6894H34.9089L35.6999 20.707C34.153 21.1465 32.5534 21.1465 30.9538 21.0761ZM30.1979 25.084C29.8288 25.0136 29.4421 24.9258 29.0729 24.8379C28.7741 24.7676 28.6159 24.5039 28.5456 24.0293C28.528 23.8359 28.5104 23.6426 28.5104 23.5019C28.5104 23.1855 28.5104 22.9043 28.5632 22.6406C28.6335 22.3066 28.7565 22.0605 29.0026 22.0078C29.4069 21.9199 29.7936 21.8144 30.1979 21.7441C30.4265 21.709 30.4792 21.7969 30.4792 22.1308C30.444 22.9746 30.4616 23.8183 30.4968 24.6621C30.4968 25.0488 30.4265 25.1191 30.1979 25.084ZM31.4636 26.1386C31.235 26.1035 31.0241 26.0683 30.8307 26.0156L30.9538 25.7168C31.8854 25.6992 32.8347 25.6992 33.7663 25.7168C34.3112 25.7344 34.8386 25.8926 35.3659 26.0156C35.6296 26.0859 35.8933 26.1386 36.1569 26.209L31.4636 26.1386ZM42.8542 24.9258C42.9245 25.0136 42.9245 25.1718 42.8366 25.3476C42.6608 25.6992 42.0632 26.2793 41.6589 26.332C41.5358 26.3496 42.0983 25.1191 42.1862 25.0312C42.4147 24.75 42.7311 24.75 42.8542 24.9258ZM38.3015 23.2207C38.319 24.0293 38.2839 24.75 38.0729 25.4531C38.0378 25.5761 38.0026 25.6992 37.9323 25.8047C37.862 25.9101 37.8093 26.0156 37.7565 26.0859C36.8249 25.8222 35.8757 25.5586 34.944 25.2949V25.2773C35.155 25.0312 35.6472 24.416 35.6999 23.5195C35.735 22.8515 35.5593 21.9199 35.0671 21.4629C35.612 21.3222 36.4909 21.0586 37.7214 20.6718V20.6543C37.9499 20.9531 38.0554 21.3047 38.1257 21.6562C38.2487 22.2187 38.3015 22.7636 38.3015 23.2207ZM42.6432 21.0761C42.819 21.3574 42.7311 21.6738 42.5378 21.7441C42.4323 21.7793 42.2917 21.7441 42.1335 21.6035C41.8522 21.3222 41.4831 20.584 41.5534 20.1972C41.571 20.0742 42.5729 20.9707 42.6432 21.0761Z" fill="#606060"/>
<path d="M11.4598 21.5644C11.4246 21.5293 11.3895 21.4941 11.3543 21.459C11.2488 21.3886 11.1258 21.2656 10.9852 21.3535C10.8445 21.4414 10.95 21.582 10.9852 21.6875C11.0379 21.8633 11.0203 21.9336 10.8094 21.9336C9.825 21.9687 8.8582 22.0039 7.87383 22.0215C6.37969 22.0566 4.69219 21.7754 3.25078 22.3554C2.75859 22.5488 2.47734 22.9179 2.09062 23.2344C1.89726 23.3926 1.73906 23.5859 1.65117 23.832C1.35234 24.834 1.33476 25.8359 1.65117 26.8554C1.93242 27.7519 2.84648 28.3847 3.70781 28.6308C4.99101 29 6.23906 28.7011 7.52226 28.7363C8.52422 28.7539 9.59648 28.7539 10.6863 28.8066C11.1609 28.8242 11.073 28.789 11.0027 29.1933C10.9852 29.2636 10.95 29.334 11.0203 29.3867C11.0906 29.4394 11.1785 29.4043 11.2488 29.3691C11.4422 29.2812 11.5477 29.1054 11.6883 28.9648C11.741 28.9121 11.7937 28.8418 11.8816 28.8418C12.6199 28.8418 13.3582 28.789 14.0789 28.8418C14.6414 28.8769 15.2215 28.9297 15.784 28.9121C16.4695 28.8769 17.1023 28.7715 17.6297 28.2793C18.2098 27.7519 18.702 27.207 18.8426 26.416C18.9305 25.8886 18.9305 25.3437 18.8953 24.8164C18.8602 24.1836 18.6844 23.6035 18.2801 23.0937C18.0164 22.7773 17.7176 22.5312 17.4187 22.2676C17.1727 22.0566 16.8914 21.9336 16.575 21.8808C16.1531 21.7929 15.7312 21.7929 15.327 21.7754C14.8172 21.7402 14.325 21.8808 13.8152 21.8808C13.323 21.8984 12.8133 21.8633 12.3211 21.8984C11.9695 21.916 11.6707 21.8633 11.4598 21.5644ZM6.25664 23.0234L6.37969 22.7422C6.57304 22.707 6.74883 22.6719 6.94219 22.6367H10.2117L11.0027 22.6543C9.45586 23.1113 7.85625 23.1113 6.25664 23.0234ZM5.50078 27.0488C5.13164 26.9785 4.74492 26.8906 4.37578 26.8027C4.07695 26.7324 3.91875 26.4687 3.84844 25.9941C3.83086 25.8008 3.81328 25.6074 3.81328 25.4668C3.81328 25.1504 3.81328 24.8691 3.86601 24.6054C3.93633 24.2715 4.05937 24.0254 4.30547 23.9726C4.70976 23.8847 5.09648 23.7793 5.50078 23.709C5.7293 23.6738 5.78203 23.7617 5.78203 24.0957C5.74687 24.9394 5.76445 25.7832 5.79961 26.6269C5.79961 27.0136 5.74687 27.084 5.50078 27.0488ZM6.7664 28.1035C6.53789 28.0683 6.32695 28.0332 6.13359 27.9804L6.25664 27.6816C7.18828 27.664 8.1375 27.664 9.06914 27.6816C9.61406 27.6992 10.1414 27.8574 10.6687 27.9804C10.9324 28.0508 11.1961 28.1035 11.4598 28.1738L6.7664 28.1035ZM18.1746 26.8906C18.2449 26.9785 18.2449 27.1367 18.157 27.3125C17.9812 27.664 17.3836 28.2441 16.9793 28.2969C16.8562 28.3144 17.4187 27.084 17.5066 26.9961C17.7352 26.7148 18.0516 26.7148 18.1746 26.8906ZM13.6043 25.1855C13.6219 25.9941 13.5867 26.7148 13.3758 27.4179C13.3406 27.541 13.3055 27.664 13.2352 27.7695C13.1648 27.875 13.1121 27.9804 13.0594 28.0508C12.1277 27.7871 11.1785 27.5234 10.2469 27.2597V27.2422C10.4578 26.9961 10.95 26.3808 11.0027 25.4844C11.0379 24.8164 10.8621 23.8847 10.3699 23.4277C10.9148 23.2871 11.7937 23.0234 13.0242 22.6367V22.6191C13.2527 22.9179 13.3582 23.2695 13.4285 23.6211C13.5691 24.1836 13.6043 24.7285 13.6043 25.1855ZM17.9461 23.041C18.1219 23.3222 18.034 23.6386 17.8406 23.709C17.7352 23.7441 17.5945 23.709 17.4363 23.5683C17.1551 23.2871 16.7859 22.5488 16.8562 22.1621C16.8914 22.039 17.8934 22.9355 17.9461 23.041Z" fill="#606060"/>
<path d="M19.5 18H23.5V30V31.5H19.5" stroke="#606060"/>
</svg>
