<svg xmlns="http://www.w3.org/2000/svg" viewBox="0 0 206.97 135.44"><title>premium</title><g id="Шар_2" data-name="Шар 2"><g id="Шар_1-2" data-name="Шар 1"><path d="M35.77,2.26a17.61,17.61,0,0,1,7.85,6.5,17.75,17.75,0,0,1,2.76,9.9,17.75,17.75,0,0,1-2.76,9.9,17.6,17.6,0,0,1-7.85,6.5,29.2,29.2,0,0,1-11.95,2.26H16.68V49.48H0V0H23.82A29.22,29.22,0,0,1,35.77,2.26ZM27.85,22.94a5.44,5.44,0,0,0,1.7-4.28,5.45,5.45,0,0,0-1.7-4.28,7.42,7.42,0,0,0-5.09-1.52H16.68V24.46h6.08A7.42,7.42,0,0,0,27.85,22.94Z"/><path d="M73,37H68.5V49.48H51.81V0H75.63A29.22,29.22,0,0,1,87.58,2.26a17.61,17.61,0,0,1,7.85,6.5,17.75,17.75,0,0,1,2.76,9.9,17.5,17.5,0,0,1-2.4,9.26,17,17,0,0,1-6.93,6.29L99.24,49.48H81.43Zm6.64-22.66a7.42,7.42,0,0,0-5.09-1.52H68.5V24.46h6.08a7.42,7.42,0,0,0,5.09-1.52,5.44,5.44,0,0,0,1.7-4.28A5.45,5.45,0,0,0,79.66,14.38Z"/><path d="M145.61,36.9V49.48H104.47V0H144.7V12.58H120.87v5.8H141.8v12H120.87v6.5Z"/><path d="M44.18,134.3,44,111.76l-10.75,18.1H25.94L15.2,112.53V134.3H0V84.82H13.71l16.12,26.37L45.52,84.82H59.24l.14,49.48Z"/><path d="M67.43,84.82H84.12V134.3H67.43Z"/><path d="M98.11,129.29q-6.36-6.15-6.36-17.25V84.82h16.68v26.72q0,5.44,1.94,7.92a7.62,7.62,0,0,0,11.24,0q1.94-2.47,1.94-7.92V84.82H140V112q0,11.1-6.36,17.25t-17.74,6.15Q104.47,135.44,98.11,129.29Z"/><path d="M191.77,134.3l-.14-22.55-10.75,18.1h-7.35l-10.75-17.32V134.3h-15.2V84.82h13.71l16.12,26.37,15.69-26.37h13.71L207,134.3Z"/></g></g></svg>