<svg xmlns="http://www.w3.org/2000/svg" viewBox="0 0 217.16 205.81"><defs><style>.cls-1{fill:none;}</style></defs><title>rain sensing</title><g id="Шар_2" data-name="Шар 2"><g id="Шар_1-2" data-name="Шар 1"><path class="cls-1" d="M164.09,28.64c4.12-.14,6.65-2.37,7.5-6.77.27-1.39.28-2.82.43-4.5a42.4,42.4,0,0,0-.64-4.81c-1-4-3.4-5.85-7.49-5.85s-6.85,1.77-7.51,5.77a30.82,30.82,0,0,0-.08,9.88C157,26.82,159.92,28.79,164.09,28.64Z"/><path class="cls-1" d="M64.3,110.48C57.3,95.61,50.06,80.24,43,65.08c-.43-.92-.66-1.05-.67-1.06a2.44,2.44,0,0,0-1.12.31C37.84,65.77,34.38,67.16,31,68.5c-3,1.21-6.11,2.45-9.14,3.73-1.86.78-3.64,1.69-5.54,2.65l-1.27.65c.15.41.29.78.45,1.15l7.66,18.27c8.48,20.22,17.25,41.13,25.83,61.71a3.24,3.24,0,0,0,.27.54A4.55,4.55,0,0,0,50,157c6.4-1.83,13.22-3.74,20-5.37,3.26-.78,6.51-1.34,9.94-1.93l2.6-.45-.14-.31L70.81,124.3Z"/><path class="cls-1" d="M53.86,8.42h-.58L49.83,20h7.6Z"/><path class="cls-1" d="M104.26,147.48c1.62,0,3.24-.07,4.86-.07A183.3,183.3,0,0,1,167.28,157a3.38,3.38,0,0,0,.58.15,3.81,3.81,0,0,0,.29-.59c10-24.07,20.29-48.53,30.2-72.17l2.46-5.87a13.5,13.5,0,0,0,1.06-3,19.56,19.56,0,0,0-2.58-1.4,203.67,203.67,0,0,0-84.8-21.24,199.7,199.7,0,0,0-52.59,5.46c-1.88.45-3.73.93-5.68,1.45l-.94.25.15.33Q64,78.55,72.49,96.68L78,108.33Q87.09,127.66,96.16,147c.43.91.54.91,1.15.84,2.26-.25,4.54-.31,6.75-.37Zm59.25-.56-49.31-5.33,77.3-61.31ZM93,100.85c.36-6.13,10.14-7.13,11.7-15.43C106.16,77.46,98.4,71.94,100,70c2.66-3.08,29.29,4.59,30.73,22.76.69,8.73-4.36,20.63-14.88,22.92C104.31,118.26,92.55,107.77,93,100.85Z"/><path d="M212.63,66.16l-4.07-2c-5.51-2.76-11.2-5.6-17-8a215.08,215.08,0,0,0-116.24-14A213.75,213.75,0,0,0,4.85,65.95c-5,2.74-5.95,5.46-3.7,10.8Q6.08,88.48,11,100.22l8.45,20.19c6.39,15.27,13,31.06,19.57,46.56a8.31,8.31,0,0,0,4,4.44c2.24.9,5,.16,6.05-.19,15-5,27.41-7.91,39-9.21l.38,0h.12a1.52,1.52,0,0,1,.23.4c2.19,4.81,4.34,9.51,6.66,14.14.55,1.09.52,1.42-.19,2.32a16.36,16.36,0,0,0-.33,19.89,17,17,0,0,0,13.74,7.07,15.82,15.82,0,0,0,5-.8c8.19-2.71,12.81-10.37,11.5-19-1.17-7.76-8.29-13.73-16.56-13.89A2.06,2.06,0,0,1,108,172c-1.62-3.27-3.15-6.56-4.77-10l-.5-1.07a178,178,0,0,1,29.08,1.4,192.84,192.84,0,0,1,36.23,9c5.27,1.81,8.16.52,10.32-4.61q4.47-10.63,8.92-21.28L199.53,116q8.31-19.82,16.61-39.65C218.21,71.46,217.16,68.4,212.63,66.16ZM82.55,149.29l-2.6.45c-3.44.59-6.68,1.15-9.94,1.93-6.79,1.63-13.61,3.54-20,5.37a4.55,4.55,0,0,1-.72.16,3.24,3.24,0,0,1-.27-.54c-8.58-20.58-17.35-41.49-25.83-61.71L15.53,76.68c-.15-.37-.3-.74-.45-1.15l1.27-.65c1.89-1,3.68-1.87,5.54-2.65C24.92,71,28,69.71,31,68.5c3.34-1.34,6.8-2.73,10.18-4.16A2.44,2.44,0,0,1,42.33,64s.24.13.67,1.06c7.05,15.15,14.3,30.53,21.3,45.39l6.51,13.82L82.41,149ZM96.16,147Q87.11,127.66,78,108.33L72.49,96.68Q64,78.55,55.44,60.42l-.15-.33.94-.25c2-.52,3.8-1,5.68-1.45a199.7,199.7,0,0,1,52.59-5.46,203.67,203.67,0,0,1,84.8,21.24,19.56,19.56,0,0,1,2.58,1.4,13.5,13.5,0,0,1-1.06,3l-2.46,5.87c-9.92,23.65-20.17,48.1-30.2,72.17a3.81,3.81,0,0,1-.29.59,3.38,3.38,0,0,1-.58-.15,183.3,183.3,0,0,0-58.17-9.62c-1.62,0-3.24,0-4.86.07h-.2c-2.21.06-4.49.12-6.75.37C96.7,147.92,96.59,147.93,96.16,147Z"/><path d="M161.32,35.2c8.91,1,16.13-2.44,18.24-11.7a30.87,30.87,0,0,0,.6-7.4C180,5.87,174,0,163.78,0c-9.14,0-14.49,4.37-16,13.44a29.27,29.27,0,0,0-.23,6.79C148.15,28.91,152.92,34.24,161.32,35.2Zm-4.93-22.72c.66-4,3.39-5.77,7.51-5.77s6.52,1.83,7.49,5.85a42.4,42.4,0,0,1,.64,4.81c-.15,1.68-.16,3.12-.43,4.5-.85,4.39-3.38,6.62-7.5,6.77s-7-1.82-7.78-6.28A30.82,30.82,0,0,1,156.39,12.48Z"/><path d="M86.85,34.78a21.19,21.19,0,0,0,6.55.51c8.21-.61,12.55-5.42,12.56-13.65q0-9.38,0-18.76c0-.75-.06-1.5-.1-2.31H98c0,1,0,1.76,0,2.53C98,9.63,98,16.17,98,22.7c0,3.33-1.36,5-4.09,5.65-5.3,1.25-8.34-1.06-8.39-6.51-.06-6.32,0-12.65,0-19,0-.75,0-1.49,0-2.25H77.79c0,8.27-.32,16.43.12,24.55C78.18,30.42,81.87,33.55,86.85,34.78Z"/><path d="M44.28,34.87c.48,0,1.14-.74,1.35-1.27a52.84,52.84,0,0,0,1.65-5.27,1.67,1.67,0,0,1,1.92-1.48c2.91.07,5.83-.06,8.73.09a2.68,2.68,0,0,1,1.89,1.4c.71,1.69,1.07,3.52,1.68,5.26.18.51.72,1.26,1.13,1.27,2.45.12,4.9.06,7.37.06a3.34,3.34,0,0,0,0-.9c-3.81-10.84-7.61-21.68-11.49-32.5A2.31,2.31,0,0,0,56.82.43c-2-.15-4,0-6-.1a2.27,2.27,0,0,0-2.61,1.83c-2.75,8.05-5.61,16.07-8.43,24.1l-3,8.67C39.5,34.93,41.89,35,44.28,34.87Zm9-26.46h.58L57.44,20h-7.6Z"/><path d="M123.37,11.57c0,7.1,0,14.21,0,21.31,0,.68.55,1.91.93,1.95,2.22.19,4.47.09,7,.09V7.18h9V.65H114.38V7.23h9C123.37,8.77,123.37,10.17,123.37,11.57Z"/><path d="M115.88,115.73c10.52-2.3,15.57-14.2,14.88-22.92C129.32,74.64,102.69,67,100,70c-1.63,1.89,6.13,7.42,4.63,15.37-1.56,8.3-11.34,9.31-11.7,15.43C92.55,107.77,104.31,118.26,115.88,115.73Z"/><polygon points="163.51 146.92 191.49 80.28 114.19 141.59 163.51 146.92"/></g></g></svg>