<?xml version="1.0" encoding="utf-8"?>
<!-- Generator: Adobe Illustrator 21.1.0, SVG Export Plug-In . SVG Version: 6.00 Build 0)  -->
<svg version="1.1" id="Шар_1" xmlns="http://www.w3.org/2000/svg" xmlns:xlink="http://www.w3.org/1999/xlink" x="0px" y="0px"
	 viewBox="0 0 219.4 133.4" style="enable-background:new 0 0 219.4 133.4;" xml:space="preserve">
<title>Ресурс 21</title>
<g id="Шар_2">
	<g id="Шар_1-2">
		<path d="M62.3,69.4c-1.1-1.2-2.6-1.9-4.2-2h-0.2c-3.3-0.1-6.1,2.6-6.1,5.9s2.6,6.1,5.9,6.1l0,0c1.6,0.1,3.3-0.5,4.4-1.7
			c1.1-1,1.8-2.5,1.8-4l0,0C64,72.2,63.4,70.6,62.3,69.4z"/>
		<path d="M218.8,111.8c-13.1-43.9-22.5-77-28.3-99.4c-0.8-3.1-3.9-4.9-7-4.1c-0.8,0.2-1.5,0.5-2.1,1
			c-20.1,15.1-52.7,20.5-76.8,18.7C74,25.6,51.6,11.1,39.4,1.3c-2.5-2-6.1-1.6-8.1,0.9c-0.5,0.6-0.8,1.3-1,2l-30,101.7
			c-0.7,2.5,0.2,5.1,2.4,6.5c2.2,1.4,4.8,2.9,7.7,4.6c4.6,2.5,9.5,4.4,14.5,5.8c28.6,8.8,58,10.9,90.7,10.6
			c21.1,0.5,42.1-1.2,62.8-5.3c14.7-2.9,28.8-7.2,41.1-15.9L218.8,111.8z M77.2,76.2h-1.9h-1.2c-1.1,0-2.1,0-3.2,0h-0.1
			c-0.6,0-1.2-0.2-1.6-0.6c-0.3,1.5-0.9,3-1.8,4.3c0.5,0.1,1,0.3,1.4,0.7l1.6,1.6l0.2,0.2c0.8,0.8,1.7,1.6,2.5,2.4s1.5,1.5,2.4,2.5
			c0.2,0.3,0.4,0.6,0.6,0.9l0.1,0.1l0.2,0.3V89c-0.1,1.1-0.7,2-1.7,2.5c-0.9,0.5-2,0.3-2.8-0.4c-0.9-0.9-1.9-1.8-2.8-2.6
			c-1.4-1.4-2.8-2.8-4.1-4.1c-0.3-0.3-0.5-0.8-0.6-1.2c0-0.1,0-0.1,0-0.2c-1.3,0.9-2.8,1.5-4.3,1.8l0.1,0.2c0.3,0.3,0.4,0.8,0.4,1.2
			c0,1.2,0,2.4,0,3.5v0.3v1v1.4c0,1.1,0,2.3-0.1,3.4c0,0.7-0.4,1.4-1,1.9c-0.5,0.4-1,0.6-1.6,0.6c-0.1,0-0.3,0-0.4,0
			c-1.2-0.1-2.1-1.1-2.2-2.3c-0.1-0.6-0.1-1.2-0.1-1.8c0-2.3,0-4.7,0-7c0-0.2,0-0.5,0-0.7c0-0.2,0-0.3,0-0.4c0-0.5,0.2-0.9,0.5-1.3
			c-1.5-0.3-3-0.9-4.3-1.8c-0.1,0.5-0.3,0.9-0.6,1.3l-0.3,0.3c-0.5,0.5-1,1.1-1.6,1.7c-1,1-2,2-3,3L44.2,91c-1,1-2.6,1.1-3.7,0.1
			c0,0-0.1-0.1-0.1-0.1c-1-1-1.1-2.6-0.1-3.6c0,0,0,0,0,0c1.4-1.5,3-3.1,4.9-5c0.5-0.6,1.2-1.1,1.8-1.7c0.3-0.2,0.6-0.4,0.9-0.5
			l0.2-0.2l0.2-0.1c-0.9-1.3-1.4-2.7-1.7-4.3c-0.5,0.4-1,0.6-1.6,0.6c-1,0-2.1,0-3.1,0h-1.3l-4.7-0.1c-0.2,0-0.3,0-0.5,0
			c-1.2-0.1-2.1-1-2.2-2.2c-0.2-1.1,0.4-2.3,1.4-2.8c0.3-0.2,0.6-0.2,0.9-0.2H45h0.3c0.5,0,0.9,0.2,1.3,0.5c0.3-1.5,0.9-3,1.8-4.3
			c-0.5-0.1-1-0.3-1.3-0.6c-0.8-0.7-1.6-1.5-2.5-2.3s-1.9-1.9-2.8-2.9L40.6,60l-0.2-0.2c-0.8-0.7-1.1-1.9-0.6-2.9
			c0.4-1,1.4-1.6,2.5-1.7h0.3l0.3,0.2h0.1c0.3,0.1,0.6,0.3,0.9,0.5l0.3,0.3c1.2,1.1,2.5,2.4,3.8,3.6c0.5,0.5,1.1,1.1,1.6,1.7
			s0.7,0.8,1.1,1.2c0.3,0.4,0.6,0.8,0.6,1.3c1.2-0.9,2.6-1.5,4.1-1.8c-0.4-0.6-0.6-1.2-0.6-1.9c0-1,0-2.1,0-3.1c0-0.4,0-0.8,0-1.3
			v-1.2c0-1.1,0-2.2,0-3.2c0-0.8,0.3-1.5,0.9-2.1c0.8-0.8,1.9-1.1,2.9-0.8c0.7,0.2,1.2,0.6,1.6,1.1l0.1,0.1c0.3,0.4,0.5,0.8,0.4,1.3
			v0.4c0,3,0,6.1,0,9.1c0,0.4-0.2,0.9-0.4,1.2c0,0.1-0.1,0.1-0.2,0.2c1.4,0.3,2.8,0.9,4,1.7c0-0.2,0.1-0.3,0.1-0.5
			c0.1-0.4,0.4-0.7,0.7-1l0,0c1.4-1.4,2.9-3,4.4-4.6c0.5-0.5,1.1-1,1.6-1.5l0.3-0.3c0.5-0.5,1.2-0.8,1.8-0.7c0.9,0,1.7,0.4,2.2,1.1
			c0.8,0.9,0.7,2.3-0.1,3.2c-0.7,0.8-1.5,1.7-2.4,2.5s-2,2-3,2.9l-1,1c-0.2,0.2-0.4,0.3-0.6,0.5c-0.4,0.3-0.8,0.5-1.3,0.5
			c0.9,1.3,1.5,2.8,1.8,4.3c0.4-0.3,0.9-0.5,1.4-0.5c1.4,0,3-0.1,4.7-0.1h2.1c0.8,0,1.7,0,2.5,0c0.7,0,1.4,0.3,1.9,0.8
			c0.6,0.6,0.8,1.5,0.7,2.4c-0.1,1.2-1.2,2.2-2.4,2.1L77.2,76.2z M130.2,49.2l-41.7,64c-1.1,1.7-3.4,2.2-5.2,1.1
			c-1.7-1.1-2.2-3.4-1.1-5.2l0,0l41.7-64c1.1-1.7,3.4-2.2,5.2-1.1C130.8,45.1,131.3,47.4,130.2,49.2z M164.8,100.8
			c-9.6,2.1-19.4-6.6-19-12.3c0.3-5.1,8.4-5.9,9.7-12.8c1.2-6.6-5.2-11.2-3.9-12.7c2.2-2.6,24.3,3.8,25.5,18.8
			C177.6,88.9,173.5,98.8,164.8,100.8L164.8,100.8z"/>
	</g>
</g>
</svg>
