<svg xmlns="http://www.w3.org/2000/svg" viewBox="0 0 237.01 232.76"><title>Rear Dual Zone AC</title><g id="Шар_2" data-name="Шар 2"><g id="Шар_1-2" data-name="Шар 1"><path d="M136.62,196.8c-3.82,2.17-7.07,4-10.35,5.88-3,1.7-5.55,1.39-6.76-.78s-.34-4.59,2.57-6.3c3.27-1.92,6.57-3.8,10.29-6l-7.95-4.71c-3-1.79-3.87-3.92-2.5-6.24s3.51-2.63,6.68-.83c3.4,1.93,6.75,4,10.19,5.81.84.45,2.24.83,2.95.44,6.62-3.65,13.15-7.48,20.16-11.52-7-4.06-13.52-7.89-20.12-11.54a3.79,3.79,0,0,0-3,.37c-3.54,1.91-7,4-10.46,6-2.9,1.64-5.08,1.25-6.4-1s-.61-4.33,2.24-6.07c2.57-1.57,5.18-3.06,8.22-4.85l-8.93-5.14c-4.18-2.4-5.42-4.67-3.91-7.18s3.91-2.41,7.93-.07l9.17,5.3c0-3.75.05-6.84,0-9.92-.06-2.86,1.33-4.68,4.07-4.69s4.15,1.85,4.14,4.66c0,4.14-.06,8.28.06,12.42,0,1,.38,2.42,1.07,2.83,6.47,3.89,13.06,7.61,20.13,11.68,0-8.16.06-15.72-.09-23.28,0-.81-1.11-1.82-1.95-2.34-3.43-2.1-7-4-10.45-6-2.83-1.67-3.59-3.81-2.33-6.07s3.55-2.72,6.39-1.17c2.63,1.43,5.21,2.95,8.44,4.78,0-4.4.06-8.25,0-12.09-.06-2.84.81-4.9,3.94-5.14,2.69-.2,4.28,1.73,4.32,5.15,0,3.8,0,7.6,0,12,2.92-1.65,5.48-3.11,8.07-4.55,3.07-1.7,5.41-1.35,6.61,1.12,1.35,2.79.12,4.66-2.37,6.06-3.51,2-7,3.95-10.43,6.07a3.77,3.77,0,0,0-1.78,2.45c-.14,7.46-.08,14.92-.08,23,7.13-4.1,13.81-7.87,20.38-11.81.61-.36.81-1.75.83-2.67.09-4,0-8.06.05-12.09,0-3.25,1.6-5.26,4.06-5,3,.31,4.14,2.28,4.1,5.14s0,5.8,0,9.38l7.47-4.22c1.26-.72,2.51-1.47,3.79-2.15,2.33-1.22,4.42-.92,5.77,1.43s.46,4.38-1.72,5.71c-3.52,2.15-7.13,4.15-11.08,6.44,3,1.78,5.66,3.32,8.29,4.94s3.48,4.13,2,6.15c-1.68,2.36-3.84,2.33-6.19.93-3.46-2.06-6.9-4.15-10.44-6a4.15,4.15,0,0,0-3.3-.36c-6.54,3.6-13,7.39-20,11.44,7.08,4.08,13.69,8,20.39,11.67.61.34,1.88-.13,2.67-.55,3.34-1.81,6.6-3.75,9.9-5.64s5.64-1.75,7,.57.33,4.69-3.07,6.67l-7.43,4.3c3.7,2.14,7,4,10.32,6,3.09,1.82,4,3.93,2.61,6.24s-3.7,2.6-6.74.89c-3.28-1.84-6.53-3.73-10.33-5.9,0,3.5,0,6.38,0,9.25-.06,3.43-1.67,5.51-4.23,5.28-3.08-.27-4-2.3-3.94-5.17.1-3.47-.14-7,.1-10.4a5.08,5.08,0,0,0-3.06-5.56c-6-3.19-11.81-6.69-18.26-10.38,0,8.08-.06,15.63.09,23.17,0,.81,1.09,1.84,1.93,2.36,3.13,1.94,6.37,3.7,9.57,5.54,3.4,2,4.45,4.28,3,6.68s-3.85,2.54-7.35.53l-7.29-4.23c0,4.62.27,8.7-.13,12.71a6.21,6.21,0,0,1-2.89,4.25c-1,.51-3.08-.51-4.33-1.36-.67-.46-.83-2-.85-3-.09-3.91,0-7.83,0-12.54l-8.65,4.9c-2,1.11-3.86,1.19-5.55-.45-2-2-1.46-5,1.34-6.73,3.54-2.14,7.22-4,10.73-6.22.9-.56,2-1.72,2-2.63.16-7.45.09-14.91.09-23.06-7.15,4.14-13.79,7.94-20.35,11.89-.62.37-.9,1.7-.92,2.59-.09,4.14-.06,8.28,0,12.42,0,2.82-1.32,4.66-4.1,4.67s-4.16-1.78-4.12-4.63C136.66,203.57,136.62,200.48,136.62,196.8Z"/><path d="M170.68,232.45a9.25,9.25,0,0,1-4.52-1.75c-1-.66-1.45-2-1.51-4.25-.07-2.83-.06-5.72,0-8.78q0-.6,0-1.23l-6.4,3.63c-2.7,1.53-5.3,1.29-7.33-.67a5.22,5.22,0,0,1-1.64-4.41,6.44,6.44,0,0,1,3.25-4.69c1.67-1,3.38-2,5-2.91,1.88-1.06,3.82-2.16,5.68-3.3a3.44,3.44,0,0,0,1.32-1.42c.12-5.65.11-11.33.1-17.35v-3l-2.33,1.35c-5.43,3.14-10.56,6.1-15.65,9.17a3.64,3.64,0,0,0-.29,1.4c-.09,4-.06,7.79,0,12.38a6.37,6.37,0,0,1-1.62,4.66,5.47,5.47,0,0,1-4,1.53,5.61,5.61,0,0,1-4-1.51,6.28,6.28,0,0,1-1.6-4.64c0-2.11,0-4.21,0-6.51,0-.25,0-.49,0-.74l-1.24.71c-2.41,1.37-4.64,2.65-6.88,3.9-4.51,2.53-7.51,1-8.81-1.36-1.69-3-.5-6.2,3.12-8.32,2.3-1.35,4.61-2.68,7.08-4.1l1-.58-5.74-3.4a7.9,7.9,0,0,1-3.52-3.66,5.1,5.1,0,0,1,.5-4.64c1.28-2.15,3.82-4.14,8.71-1.37,1.25.71,2.49,1.43,3.73,2.15,2.1,1.22,4.27,2.48,6.43,3.64a3.23,3.23,0,0,0,1.59.41c5-2.78,10-5.67,15.32-8.74l2.49-1.44-2.49-1.44c-5.29-3.07-10.28-6-15.36-8.79a3.21,3.21,0,0,0-1.57.38c-2,1.1-4.08,2.3-6.05,3.47-1.46.86-2.91,1.71-4.38,2.54-5.1,2.87-7.59-.12-8.43-1.54s-2.25-5.06,2.75-8.11c1.77-1.08,3.57-2.13,5.51-3.26l.51-.3-6.69-3.85c-3-1.72-4.63-3.41-5.13-5.31a5,5,0,0,1,.67-3.95c1.88-3.15,5.24-3.35,10-.6l6.27,3.62.66.38q0-.41,0-.81c0-2.26,0-4.4,0-6.49a6.32,6.32,0,0,1,1.58-4.68,5.43,5.43,0,0,1,4-1.54h0a5.44,5.44,0,0,1,4,1.51,6.37,6.37,0,0,1,1.67,4.66v2c0,3.4,0,6.92.06,10.37a3.67,3.67,0,0,0,.4,1.63c5,3,10,5.86,15.28,8.9l2.52,1.44v-2.9c0-6.11,0-11.89-.09-17.68a3.79,3.79,0,0,0-1.23-1.16c-1.95-1.19-4-2.34-5.94-3.46-1.5-.85-3-1.7-4.49-2.58C149.37,133,148.29,130,150,127s4.9-3.67,8.42-1.76c1.8,1,3.53,2,5.54,3.12l.69.39q0-.69,0-1.36c0-2.82,0-5.48,0-8.12-.11-5.17,2.84-6.47,5.33-6.66a5.13,5.13,0,0,1,4,1.27,7.17,7.17,0,0,1,2,5.36c0,2.62,0,5.23,0,8q0,.69,0,1.4l.45-.25c1.87-1.06,3.62-2.05,5.39-3,2.13-1.18,4-1.52,5.65-1a5.11,5.11,0,0,1,3,2.79c.9,1.86,1.71,5.38-3,8-3.54,2-7,3.94-10.37,6a2.84,2.84,0,0,0-1.08,1.23c-.1,5.69-.09,11.41-.08,17.45v2.9l2.3-1.32c5.43-3.11,10.57-6.05,15.67-9.1a4.58,4.58,0,0,0,.25-1.5c.05-2.3,0-4.65,0-6.92,0-1.72,0-3.43,0-5.15a7.12,7.12,0,0,1,2-5.34,4.68,4.68,0,0,1,3.69-1.14c3.52.36,5.5,2.79,5.45,6.66,0,2,0,3.94,0,6.12v.68l5.23-3,1.25-.72c.86-.5,1.71-1,2.59-1.45,3.17-1.66,6.08-.92,7.77,2s.82,5.87-2.24,7.74c-2.47,1.51-5,2.94-7.62,4.46l-1.26.72.53.31c1.94,1.14,3.76,2.22,5.57,3.33a6.88,6.88,0,0,1,3.34,4.35,5,5,0,0,1-.87,4c-1.16,1.63-3.77,4-8.18,1.35L210,168c-2.92-1.74-5.93-3.54-9-5.16a3.2,3.2,0,0,0-1.89-.36c-5,2.73-9.84,5.57-15,8.57l-2.65,1.54,2.37,1.37c5.38,3.11,10.45,6.05,15.62,8.92a4.16,4.16,0,0,0,1.36-.49c2.37-1.29,4.75-2.67,7-4l2.82-1.63c5.18-3,7.79-1,9.06,1.11a5.17,5.17,0,0,1,.65,4c-.46,1.76-1.89,3.35-4.26,4.73l-5.18,3,1,.6c2.44,1.4,4.74,2.73,7,4.08,5.36,3.15,4,6.85,3.15,8.29-1.75,3-5,3.55-8.77,1.45-2.27-1.28-4.54-2.58-7-4l-1.12-.64V200c0,2.11,0,4.11,0,6.07a7.4,7.4,0,0,1-2.1,5.55,4.85,4.85,0,0,1-3.77,1.2c-2.51-.22-5.46-1.57-5.31-6.71,0-1.42,0-2.87,0-4.28,0-2,0-4.11.1-6.19s-.4-3.14-2.26-4.13c-4.26-2.27-8.41-4.67-12.8-7.22l-3.26-1.89v2.87c0,6.11,0,11.88.09,17.68a4.49,4.49,0,0,0,1.22,1.11c2.14,1.32,4.38,2.59,6.55,3.82l3,1.69c2.35,1.35,3.77,2.92,4.23,4.68a5.25,5.25,0,0,1-.66,4.06c-1.07,1.81-3.7,4.35-9.39,1.06l-4.59-2.66-.43-.25q0,.65,0,1.29a76.31,76.31,0,0,1-.19,9,7.67,7.67,0,0,1-3.7,5.43A2.9,2.9,0,0,1,170.68,232.45Zm-2.74-4.17a6.12,6.12,0,0,0,2.8,1.17,4.82,4.82,0,0,0,2-3,74.46,74.46,0,0,0,.17-8.6c0-1.28,0-2.6,0-4v-2.6l5,2.88,4.58,2.66c4,2.29,4.9.69,5.3,0a2.27,2.27,0,0,0,.34-1.77c-.25-.94-1.23-1.92-2.83-2.84l-3-1.68c-2.19-1.24-4.46-2.52-6.65-3.88-.27-.17-2.61-1.67-2.64-3.6-.11-5.84-.1-11.62-.09-17.75v-8l2.25,1.29,5.52,3.19c4.36,2.53,8.49,4.92,12.7,7.17,2.93,1.56,4.08,3.65,3.85,7-.14,2-.11,4-.09,5.94,0,1.44,0,2.93,0,4.4-.08,2.83.92,3.49,2.58,3.63a1.87,1.87,0,0,0,1.5-.44,4.72,4.72,0,0,0,1.1-3.37c0-1.93,0-3.91,0-6,0-1,0-2.09,0-3.22v-2.59l5.61,3.22c2.43,1.4,4.69,2.69,7,4,3.4,1.91,4.38.22,4.7-.34.42-.72,1.29-2.22-2.07-4.2-2.28-1.34-4.58-2.66-7-4.06l-5.55-3.2,9.67-5.6c1.63-.94,2.62-1.94,2.86-2.89a2.19,2.19,0,0,0-.33-1.71c-.45-.75-1.28-2.16-5,0L209.34,181c-2.32,1.34-4.72,2.73-7.12,4-.78.42-2.73,1.31-4.11.55-5.24-2.9-10.37-5.87-15.8-9l-6.86-4,2.25-1.3,4.89-2.84c5.19-3,10.09-5.86,15.09-8.62,1.47-.81,3.63-.23,4.73.35,3.09,1.65,6.14,3.47,9.08,5.23l1.42.85c2.23,1.33,3.29.76,4.2-.51a2,2,0,0,0,.38-1.61,4,4,0,0,0-2-2.39c-1.79-1.1-3.6-2.17-5.52-3.3l-2.75-1.62-2.2-1.31,2.21-1.28,3.5-2c2.63-1.5,5.11-2.92,7.55-4.41,2.2-1.35,1.74-2.75,1.2-3.68s-1.55-2-3.77-.85c-.84.44-1.66.92-2.48,1.39l-1.27.73-9.71,5.49v-5.81c0-2.2,0-4.18,0-6.17,0-2.94-1.37-3.49-2.75-3.63a1.72,1.72,0,0,0-1.39.4,4.33,4.33,0,0,0-1,3.14c0,1.7,0,3.41,0,5.11,0,2.29,0,4.66,0,7,0,1.13-.26,3.14-1.56,3.92-5.17,3.1-10.36,6.07-15.86,9.22l-6.79,3.9v-8.08c0-6.06,0-11.79.09-17.55,0-1.59,1.5-3.08,2.49-3.69,3.43-2.14,6.92-4.11,10.49-6.11,2.45-1.37,2.49-2.58,1.75-4.09a2.15,2.15,0,0,0-1.23-1.23,4.52,4.52,0,0,0-3.29.78c-1.76,1-3.5,2-5.36,3l-4.93,2.79v-2.57c0-1.38,0-2.7,0-4,0-2.79,0-5.39,0-8a4.42,4.42,0,0,0-1-3.18,2.12,2.12,0,0,0-1.71-.49c-1.66.13-2.62.76-2.55,3.61.05,2.67,0,5.35,0,8.19,0,1.27,0,2.57,0,3.93v2.58l-2.24-1.27-2.93-1.67c-2-1.14-3.71-2.13-5.48-3.09-3.1-1.69-4.05,0-4.37.58s-1.26,2.25,1.78,4.05c1.47.87,3,1.71,4.44,2.56,2,1.13,4,2.29,6,3.51.27.16,2.63,1.66,2.66,3.59.11,5.85.1,11.67.09,17.82V168l-7-4c-5.34-3.06-10.38-6-15.4-9-1.66-1-1.79-3.76-1.79-4.08-.1-3.5-.08-7-.07-10.47v-2a3.5,3.5,0,0,0-.79-2.53,2.46,2.46,0,0,0-1.85-.63,2.49,2.49,0,0,0-1.85.64,3.57,3.57,0,0,0-.73,2.52c0,2.12,0,4.28,0,6.57,0,1.08,0,2.2,0,3.39V151l-5.15-3-6.27-3.63c-4.58-2.66-5.43-1.23-5.89-.46a2,2,0,0,0-.35,1.65c.19.71,1,1.89,3.72,3.46l11.17,6.43-2.22,1.31-2.75,1.61c-1.92,1.12-3.7,2.16-5.46,3.23-3,1.84-2.14,3.32-1.73,4s1.29,2.18,4.37.45c1.46-.82,2.9-1.67,4.34-2.52,2-1.18,4.06-2.39,6.15-3.52.89-.48,3-1.18,4.45-.37,5.11,2.83,10.12,5.74,15.42,8.82l7,4-7,4c-5.31,3.07-10.33,6-15.45,8.8-1.4.77-3.41.09-4.38-.43-2.21-1.18-4.4-2.46-6.52-3.69-1.23-.72-2.46-1.43-3.7-2.14-3.36-1.9-4.13-.58-4.65.29a2.11,2.11,0,0,0-.3,2,5.17,5.17,0,0,0,2.27,2.19l10.15,6-5.45,3.14c-2.45,1.41-4.76,2.74-7.05,4.09-1.52.89-3.1,2.35-2,4.27s3.41.94,4.72.21c2.24-1.25,4.46-2.52,6.86-3.89l5.72-3.25v2.58c0,1.16,0,2.25,0,3.31,0,2.32,0,4.44,0,6.56a3.54,3.54,0,0,0,.73,2.48,2.52,2.52,0,0,0,1.86.62h0a2.53,2.53,0,0,0,1.85-.63,3.63,3.63,0,0,0,.75-2.52c0-4.62-.07-8.47,0-12.47,0-.48.14-2.94,1.65-3.85,5.15-3.1,10.32-6.09,15.79-9.26l6.83-4v2.6c0,1.91,0,3.79,0,5.64,0,6,0,11.74-.1,17.46,0,1.75-1.81,3.29-2.74,3.87-1.9,1.18-3.87,2.29-5.78,3.36-1.64.92-3.34,1.88-5,2.87a3.49,3.49,0,0,0-1.82,2.46,2.25,2.25,0,0,0,.74,1.91c.76.74,1.81,1.33,3.77.22l10.89-6.17v2.58c0,1.33,0,2.59,0,3.81,0,3.17,0,5.91,0,8.7A5,5,0,0,0,167.94,228.28Zm-21.4-35.4h0Zm.13-.1Zm.14-40.25Z"/><path d="M125,62.09a5.43,5.43,0,0,0-4.4-1.95c-2.22,0-4.44,0-6.66,0-1.75,0-3.5,0-5.25,0-4.55,0-8.54.07-12.21.17a5.68,5.68,0,0,0-4.09,1.9A30.17,30.17,0,0,0,86.73,49.1c.16,0,.31,0,.47,0a6.07,6.07,0,0,0,3.69-1.3,14.83,14.83,0,0,0,1.4-1.2l2.51-2.46c2.53-2.47,5.14-5,7.68-7.58,2.29-2.31,4.27-4.45,6.08-6.55,2.72-3.17,1.46-5.81.27-7.52a6.23,6.23,0,0,0-5.26-2.44,5.45,5.45,0,0,0-4.23,1.65l-.8.75c-1.39,1.29-2.83,2.62-4.2,4-4,4.1-8,8.31-11.6,12A6.64,6.64,0,0,0,81.17,41a5.65,5.65,0,0,0-.25,2.31A28.14,28.14,0,0,0,68.5,37.9c.05-.06.12-.11.17-.17l.12-.13a6.41,6.41,0,0,0,.89-1.06,5.26,5.26,0,0,0,1-2.88q0-11.78,0-23.57V8.95a4,4,0,0,0-1-2.9l-.29-.33A7.39,7.39,0,0,0,65.5,3.05a7.1,7.1,0,0,0-7,1.85,6.37,6.37,0,0,0-2,4.87c.05,2.76,0,5.59,0,8.32v3.16q0,1.6,0,3.2c0,2.62,0,5.32,0,8a7.67,7.67,0,0,0,2.09,5.45,28.36,28.36,0,0,0-12.35,5.41,5.52,5.52,0,0,0-1.46-4.37c-1-1-1.92-2-2.87-3.08-1.31-1.43-2.67-2.91-4.09-4.32-3.2-3.17-6.53-6.28-9.75-9.29l-.9-.84a5.52,5.52,0,0,0-1.93-1.1l-.33-.13-.64-.3-.71.06a6.74,6.74,0,0,0-5.88,3.95,5.58,5.58,0,0,0,1.39,6.75c.12.15.25.3.38.44l2.9,3c2.46,2.55,4.93,5.1,7.42,7.62,2.25,2.27,4.32,4.24,6.35,6A5.76,5.76,0,0,0,40,49.14c.16,0,.32,0,.48,0a28.64,28.64,0,0,0-5.52,13,6.39,6.39,0,0,0-4-1.84,5.83,5.83,0,0,0-.77-.06h-1l-23.26,0a4.53,4.53,0,0,0-2.09.55A6.34,6.34,0,0,0,.57,67.37c.49,3.12,2,4.59,5,5.09a8.38,8.38,0,0,0,1.12.11l12.07.25,2.67,0v-.06h.57c2.67,0,5.44,0,8.13,0a5.64,5.64,0,0,0,4.68-2.19,29.06,29.06,0,0,0,5,12.64l-1.32.66-.53.24a7.66,7.66,0,0,0-2.09,1.19c-1.69,1.44-3.25,2.89-4.65,4.31-4.9,5-8.88,9.08-12.53,12.91a6,6,0,0,0,.23,8.52,6.26,6.26,0,0,0,4.4,2,6.31,6.31,0,0,0,4.43-2l4.45-4.37Q36.17,102.87,40,99c1.42-1.42,2.79-2.9,4.1-4.34l.73-.8a5.31,5.31,0,0,0,1.44-4.05,28.56,28.56,0,0,0,13,5.39,5.45,5.45,0,0,0-1.82,3.86c0,.32-.05.64-.09,1a15,15,0,0,0-.13,1.69q-.06,9-.05,18a33.79,33.79,0,0,0,.28,4.49c.42,3.12,2,4.71,5.14,5.32a5.42,5.42,0,0,0,1,.1,6.12,6.12,0,0,0,3.82-1.4,5.77,5.77,0,0,0,2.23-4.3c.08-2.92.14-5.85.2-8.77l.08-3.54V109H70q0-4.89,0-9.78a4,4,0,0,0-.87-2.68,12.54,12.54,0,0,0-1.31-1.28,28.23,28.23,0,0,0,13.3-5.6,9.67,9.67,0,0,0,0,1.82,4.59,4.59,0,0,0,1.22,2.75c3.31,3.35,6.87,6.94,10.48,10.49,2.33,2.29,4.73,4.55,7.14,6.81a5.56,5.56,0,0,0,3.81,1.58,5.39,5.39,0,0,0,2.59-.68,7.27,7.27,0,0,0,4-5.85l.09-.82L110,105c-.05-.1-.1-.21-.15-.34a7.84,7.84,0,0,0-1.32-2.22c-2.3-2.54-4.27-4.61-6.2-6.5-2.16-2.12-4.35-4.2-6.54-6.28q-2.24-2.14-4.48-4.28a5.77,5.77,0,0,0-4.41-1.65,30.14,30.14,0,0,0,5.53-13.12A5.66,5.66,0,0,0,97,72.79h.19c2.72-.07,5.5-.06,8.19,0h3.21L113,72.7c2.66,0,5.32-.08,8-.15a5.36,5.36,0,0,0,5.57-4.92A6.62,6.62,0,0,0,125,62.09Zm-45.23,5a15.42,15.42,0,0,1-5,10.93,15.94,15.94,0,0,1-11.94,4.55A16.24,16.24,0,0,1,47.44,65.84,16.41,16.41,0,0,1,63.49,50.26h.59a16.26,16.26,0,0,1,11.38,5.27A15.85,15.85,0,0,1,79.73,67v.13Z"/><path d="M63.7,130.12a5.89,5.89,0,0,1-1.11-.1c-3.38-.64-5.09-2.41-5.54-5.74a34.4,34.4,0,0,1-.28-4.56c0-5.21,0-10.75.05-18A15.13,15.13,0,0,1,57,100v-.11c0-.27.06-.53.07-.8a5.93,5.93,0,0,1,1.31-3.49,29.22,29.22,0,0,1-11.55-4.77,5.82,5.82,0,0,1-1.56,3.43l-.73.8c-1.33,1.45-2.69,2.93-4.12,4.35q-3.86,3.85-7.77,7.65l-.23.22-4.22,4.14a6.77,6.77,0,0,1-4.78,2.1,6.73,6.73,0,0,1-4.76-2.1,6.46,6.46,0,0,1-.24-9.22c3.68-3.86,7.67-8,12.54-12.91,1.41-1.43,3-2.89,4.68-4.34a8.08,8.08,0,0,1,2.22-1.27l.5-.22.81-.4a29.76,29.76,0,0,1-4.61-11.36,6.2,6.2,0,0,1-4.35,1.61c-2.67-.07-5.42-.06-8.07,0H22l-.47.06-2.67,0L6.73,73.08A8.85,8.85,0,0,1,5.54,73C2.24,72.43.6,70.78.08,67.45A6.84,6.84,0,0,1,3.6,60.38a5,5,0,0,1,2.32-.6l22.53,0h1.69a6.31,6.31,0,0,1,.84.06,7.4,7.4,0,0,1,3.62,1.34,29.36,29.36,0,0,1,4.85-11.53,6.26,6.26,0,0,1-3.66-1.55c-2-1.81-4.12-3.79-6.38-6.06-2.5-2.52-5-5.12-7.43-7.63l-2.9-3c-.15-.15-.28-.31-.41-.47a6,6,0,0,1-1.45-7.27,7.22,7.22,0,0,1,6.29-4.23l.84-.07.76.36.23.09A6.18,6.18,0,0,1,27.51,21l.9.84c3.22,3,6.55,6.12,9.76,9.3,1.43,1.42,2.79,2.9,4.11,4.34l.13.14c.91,1,1.81,2,2.74,2.93a5.84,5.84,0,0,1,1.61,3.72,28.9,28.9,0,0,1,10.92-4.76A7.9,7.9,0,0,1,56,32.4c.07-2.58.06-5.23,0-7.79v-.14q0-1.6,0-3.2V18.1c0-2.72,0-5.54,0-8.31a6.85,6.85,0,0,1,2.18-5.24,7.59,7.59,0,0,1,7.43-2,7.81,7.81,0,0,1,4.15,2.82l.29.33A4.44,4.44,0,0,1,71.14,9v1.13q0,11.78,0,23.57a5.74,5.74,0,0,1-1,3.15,6.17,6.17,0,0,1-.6.77,28.36,28.36,0,0,1,10.91,4.7,5.81,5.81,0,0,1,.29-1.48,7.11,7.11,0,0,1,1.68-2.61c3.35-3.5,7.53-7.86,11.61-12,1.38-1.41,2.82-2.75,4.22-4l.81-.75a6,6,0,0,1,4.62-1.78,6.7,6.7,0,0,1,5.63,2.65,6,6,0,0,1-.3,8.13c-1.82,2.12-3.81,4.27-6.1,6.58-2.54,2.57-5.16,5.12-7.69,7.58L92.65,47a15.32,15.32,0,0,1-1.45,1.24,6.69,6.69,0,0,1-3.48,1.38,30.59,30.59,0,0,1,5,11.55,6.14,6.14,0,0,1,3.75-1.4c3.67-.1,7.66-.15,12.22-.17,1.75,0,3.51,0,5.26,0h.15c2.17,0,4.33,0,6.5,0h.06a5.89,5.89,0,0,1,4.72,2.12h0a7.11,7.11,0,0,1,1.76,5.95A5.88,5.88,0,0,1,121,73.05c-2.61.07-5.22.11-7.84.15l-4.62.05h-3.22c-2.55,0-5.43,0-8.18,0H97a6,6,0,0,1-4.27-1.64,30.61,30.61,0,0,1-4.89,11.56A6.31,6.31,0,0,1,91.62,85q2.23,2.15,4.47,4.28l.1.09c2.16,2.05,4.31,4.11,6.44,6.19,2,1.92,3.93,4,6.22,6.53a8.28,8.28,0,0,1,1.41,2.36l0,.11.09.2.46.87-.11,1a7.75,7.75,0,0,1-4.22,6.24,6,6,0,0,1-7-1c-2.37-2.22-4.82-4.52-7.15-6.82-3.62-3.56-7.18-7.15-10.48-10.49a5.11,5.11,0,0,1-1.36-3.06,7.77,7.77,0,0,1,0-.82,28.48,28.48,0,0,1-11.63,4.89c.21.2.4.41.58.62a4.45,4.45,0,0,1,1,3q0,4.48,0,9v.33l.06.49v2.66l-.08,3.55q-.09,4.39-.2,8.78a6.27,6.27,0,0,1-2.42,4.67A6.64,6.64,0,0,1,63.7,130.12Zm-18-41.33.87.65a28.2,28.2,0,0,0,12.81,5.3l1.05.15-.79.71A5,5,0,0,0,58,99.11c0,.29,0,.59-.08.88v.11a14.4,14.4,0,0,0-.13,1.63c0,7.23-.06,12.78-.05,18a33.58,33.58,0,0,0,.27,4.43c.39,2.91,1.77,4.33,4.74,4.89a5.51,5.51,0,0,0,4.43-1.2,5.28,5.28,0,0,0,2-3.92q.12-4.39.2-8.77l.08-5.7-.06-.49v-.82q0-4.48,0-9a3.52,3.52,0,0,0-.74-2.36,12,12,0,0,0-1.26-1.22l-.84-.72,1.1-.16a27.6,27.6,0,0,0,13.07-5.5l.91-.7-.11,1.15a9,9,0,0,0,0,1.72,4.09,4.09,0,0,0,1.08,2.45c3.3,3.34,6.86,6.92,10.47,10.48,2.33,2.29,4.77,4.58,7.13,6.8a4.91,4.91,0,0,0,5.82.83,6.79,6.79,0,0,0,3.71-5.47l.07-.67-.31-.59c0-.08-.08-.17-.12-.27l0-.1a7.4,7.4,0,0,0-1.24-2.09c-2.28-2.52-4.24-4.58-6.18-6.48-2.12-2.08-4.28-4.13-6.43-6.18L95.4,90q-2.24-2.14-4.48-4.28a5.29,5.29,0,0,0-4-1.51l-1.07.07.64-.86a29.58,29.58,0,0,0,5.43-12.9l.17-1.1.71.86a5.18,5.18,0,0,0,4.21,2h.18c2.77-.07,5.66-.06,8.21,0h3.21l4.61-.05c2.61,0,5.22-.08,7.83-.15a4.85,4.85,0,0,0,5.09-4.5,6.13,6.13,0,0,0-1.52-5.13h0a4.9,4.9,0,0,0-4-1.78c-2.17,0-4.34,0-6.52,0h-.15c-1.75,0-3.5,0-5.25,0-4.55,0-8.54.07-12.2.17a5.18,5.18,0,0,0-3.73,1.73l-.7.77-.17-1A29.58,29.58,0,0,0,86.33,49.4l-.67-.89,1.26.11a5.2,5.2,0,0,0,3.66-1.18,14.38,14.38,0,0,0,1.35-1.16l2.51-2.46c2.53-2.46,5.14-5,7.67-7.57,2.27-2.29,4.25-4.43,6.05-6.52,2.47-2.87,1.42-5.2.24-6.9a5.75,5.75,0,0,0-4.88-2.23,5,5,0,0,0-3.87,1.52l-.81.75c-1.39,1.29-2.82,2.62-4.18,4-4.07,4.16-8.25,8.51-11.6,12a6.15,6.15,0,0,0-1.46,2.23,5.16,5.16,0,0,0-.22,2.11l.1,1.12-.9-.68A27.45,27.45,0,0,0,68.41,38.4l-.85-.14.55-.67.12-.13.2-.21a5.93,5.93,0,0,0,.83-1,4.77,4.77,0,0,0,.87-2.61q0-11.78,0-23.56V8.94a3.51,3.51,0,0,0-.83-2.56L69,6a7,7,0,0,0-3.63-2.51,6.62,6.62,0,0,0-6.5,1.72A5.9,5.9,0,0,0,57,9.77c0,2.78,0,5.6,0,8.33v3.16q0,1.6,0,3.2v.15c0,2.57,0,5.23,0,7.83a7.19,7.19,0,0,0,2,5.11l.59.67-.88.15a27.89,27.89,0,0,0-12.13,5.32l-.89.68.09-1.12a5,5,0,0,0-1.32-4c-.94-1-1.85-2-2.76-3l-.12-.14c-1.31-1.43-2.66-2.9-4.07-4.3-3.2-3.17-6.52-6.28-9.74-9.28l-.9-.84a5.07,5.07,0,0,0-1.77-1l-.36-.14-.53-.25-.58,0a6.26,6.26,0,0,0-5.47,3.66,5.07,5.07,0,0,0,1.28,6.17c.16.19.27.32.4.45l2.9,3c2.42,2.51,4.92,5.1,7.42,7.62,2.24,2.26,4.31,4.23,6.33,6A5.28,5.28,0,0,0,40,48.64l.22,0,.22,0,1.11-.09-.67.89a28.34,28.34,0,0,0-5.42,12.82l-.16,1-.71-.78a6,6,0,0,0-3.72-1.68,5.37,5.37,0,0,0-.71-.06H28.45l-22.53,0a4,4,0,0,0-1.86.49,5.83,5.83,0,0,0-3,6C1.52,70.2,2.82,71.51,5.7,72a7.88,7.88,0,0,0,1.05.1l12.07.25,2.18,0,.48-.06h.58c2.72,0,5.46,0,8.15,0a5.13,5.13,0,0,0,4.27-2l.72-.89.16,1.14A28.71,28.71,0,0,0,40.3,82.94l.33.48-1.85.92-.51.23a7.39,7.39,0,0,0-2,1.13C34.6,87.13,33,88.57,31.65,90c-4.87,4.94-8.85,9-12.53,12.9a5.48,5.48,0,0,0,.22,7.82,5.54,5.54,0,0,0,8.13,0l4.22-4.14.23-.22q3.89-3.81,7.76-7.65c1.41-1.4,2.77-2.88,4.07-4.31l.75-.81a4.83,4.83,0,0,0,1.31-3.68Zm17.93-5.65-.88,0a16.68,16.68,0,1,1,13-27.91A16.35,16.35,0,0,1,80.23,67l-.5.11h.5A15.93,15.93,0,0,1,75.1,78.43,16.49,16.49,0,0,1,63.67,83.14Zm-.18-32.38a15.69,15.69,0,0,0-.65,31.35,15.43,15.43,0,0,0,11.57-4.41,14.92,14.92,0,0,0,4.82-10.56v-.07A15.41,15.41,0,0,0,75.1,55.88a15.77,15.77,0,0,0-11-5.11Z"/><line x1="2.4" y1="230.62" x2="234.91" y2="2.14"/><rect x="-44.34" y="113.38" width="325.99" height="6" transform="translate(-47.55 116.53) rotate(-44.5)"/></g></g></svg>