<?xml version="1.0" encoding="utf-8"?>
<!-- Generator: Adobe Illustrator 21.1.0, SVG Export Plug-In . SVG Version: 6.00 Build 0)  -->
<svg version="1.1" id="Шар_1" xmlns="http://www.w3.org/2000/svg" xmlns:xlink="http://www.w3.org/1999/xlink" x="0px" y="0px"
	 viewBox="0 0 165.6 239.3"  xml:space="preserve">
<title>WIRELESS CHARGE-</title>
<path d="M84.6,70.2H21.1l0,0C9.5,70.2,0,79.7,0,91.3v126.9c0,11.7,9.5,21.1,21.1,21.1h63.4c11.7,0,21.1-9.5,21.1-21.1V91.3
	C105.7,79.6,96.2,70.2,84.6,70.2z M60.3,215.1c-2,2-4.7,3.1-7.5,3.1c-5.8,0-10.6-4.7-10.6-10.6S46.9,197,52.8,197
	s10.6,4.7,10.6,10.6C63.4,210.4,62.3,213.1,60.3,215.1z M81.5,132.5l-36.1,38.4c-0.9,0.9-2.3,0.9-3.2,0.1c-0.6-0.6-0.8-1.5-0.6-2.3
	l8.1-26.5h-15c-1.2,0-2.3-1-2.3-2.3c0-0.6,0.2-1.1,0.6-1.5L69.2,100c0.7-0.8,1.9-0.9,2.8-0.4l0,0c0.9,0.5,1.3,1.6,1,2.6l-8.1,26.4
	h15c1.2,0,2.3,1,2.3,2.3C82.1,131.5,81.9,132.1,81.5,132.5z"/>
<path d="M97.6,2.8C83.9-0.7,69.6-1,55.8,2l2.5,9.7c7.6-1.6,15.3-2.1,23.1-1.4c44.4,3.6,77.6,42.5,74,87c-0.3,4.2-1,8.4-2,12.5
	l9.4,3.6C175.3,64.8,146.1,15.4,97.6,2.8z"/>
<path d="M90.7,20.5c-10-2.2-20.3-2.3-30.3-0.3L63,30c33.5-6.6,66.1,15.2,72.7,48.7c1.6,8,1.6,16.2,0,24.2l9.4,3.6
	C153.8,67.8,129.5,29.3,90.7,20.5z"/>
<path d="M135.7,102.9L135.7,102.9L135.7,102.9L135.7,102.9z"/>
<path d="M79.1,38.3c-4.6-0.4-9.3-0.1-13.8,0.7l2.8,11c22.5-3.8,43.8,11.4,47.6,33.9c0.6,3.4,0.7,6.8,0.4,10.2
	c-0.1,0.4-0.1,0.8-0.2,1.2l10.8,4.2c0.3-1.5,0.4-3,0.6-4.5C129.6,66,108.1,40.7,79.1,38.3z"/>
</svg>
